<svg width="26" height="26" viewBox="0 0 26 26" fill="none" xmlns="http://www.w3.org/2000/svg">
<path d="M12.6194 13.4232L8.29688 9.08984" stroke="#3DC1F2" stroke-width="1.5" stroke-linecap="round" stroke-linejoin="round"/>
<path d="M12.3398 5.03711L16.6732 9.37044" stroke="#3DC1F2" stroke-width="1.5" stroke-linecap="round" stroke-linejoin="round"/>
<path d="M3.25 22.75H14.7225" stroke="#3DC1F2" stroke-width="1.5" stroke-linecap="round" stroke-linejoin="round"/>
<path d="M4.22656 22.75L4.81698 20.982V20.982C5.11117 20.0987 5.93674 19.5021 6.86773 19.5H11.1036V19.5C12.0373 19.4988 12.8668 20.0961 13.1619 20.982L13.748 22.75" stroke="#3DC1F2" stroke-width="1.5" stroke-linecap="round" stroke-linejoin="round"/>
<path d="M9.6336 7.90883L7.25027 9.81008V9.81008C6.39286 10.4958 6.25369 11.7468 6.93942 12.6042C6.98383 12.6597 7.03118 12.7128 7.08127 12.7632L8.89694 14.5876V14.5876C9.66238 15.357 10.9066 15.3603 11.6761 14.5948C11.7277 14.5435 11.7764 14.4894 11.8219 14.4327L13.7459 12.0428V12.0428C14.2011 11.4768 14.717 10.9624 15.2843 10.5088L17.6676 8.60758V8.60758C18.525 7.92185 18.6642 6.67088 17.9784 5.81348C17.934 5.75796 17.8867 5.70486 17.8366 5.65441L16.0242 3.83116V3.83116C15.2587 3.06172 14.0145 3.05848 13.245 3.82392C13.1935 3.87523 13.1448 3.92937 13.0992 3.98608L11.173 6.37591V6.37591C10.7177 6.94183 10.2014 7.4559 9.6336 7.90883V7.90883Z" stroke="#3DC1F2" stroke-width="1.5" stroke-linecap="round" stroke-linejoin="round"/>
<path d="M15.5758 10.2773L21.9935 15.7081V15.7081C22.899 16.4775 23.0093 17.8353 22.2399 18.7408C21.4705 19.6463 20.1127 19.7566 19.2072 18.9872C19.1375 18.9279 19.0716 18.8643 19.01 18.7967L13.3398 12.5523" stroke="#3DC1F2" stroke-width="1.5" stroke-linecap="round" stroke-linejoin="round"/>
</svg>
