<svg width="32" height="32" viewBox="0 0 24 24" fill="none" xmlns="http://www.w3.org/2000/svg">
<path d="M9.95703 16.6865V17.0515C9.95703 18.3165 10.983 19.3425 12.249 19.3425C13.515 19.3425 14.541 18.3165 14.541 17.0505V16.6855" stroke="#1E5468" stroke-width="1.5" stroke-linecap="round" stroke-linejoin="round"/>
<path d="M6.813 8.531C6.813 6.028 8.842 4 11.344 4H13.157C15.66 4 17.688 6.029 17.688 8.531V11.328C17.688 11.858 17.899 12.367 18.274 12.742L18.915 13.383C19.29 13.758 19.501 14.267 19.501 14.797C19.501 15.841 18.655 16.687 17.611 16.687H6.89C5.846 16.687 5 15.841 5 14.797C5 14.267 5.211 13.758 5.586 13.383L6.227 12.742C6.602 12.367 6.813 11.858 6.813 11.328V8.531V8.531Z" stroke="#1E5468" stroke-width="1.5" stroke-linecap="round" stroke-linejoin="round"/>
</svg>
