<svg width="24" height="24" viewBox="0 0 24 24" fill="none" xmlns="http://www.w3.org/2000/svg">
<path d="M9.66123 18.1802V18.6602H9.66023C9.65023 19.9402 10.7002 20.9902 11.9902 20.9902V20.9892L11.9802 20.9882C13.2602 20.9882 14.3102 19.9382 14.3102 18.6482C14.3102 18.6382 14.3102 18.6382 14.3102 18.6382V18.1582" stroke="white" stroke-width="1.5" stroke-linecap="round" stroke-linejoin="round"/>
<path d="M17.5692 18.1807H17.5592C18.6192 18.1807 19.4792 17.3107 19.4792 16.2507V16.2498C19.4692 15.7098 19.2592 15.1897 18.8792 14.7997L17.5992 13.5198V9.72475V9.72375C17.5992 6.61375 15.0792 4.09375 11.9742 4.09375H11.9732H11.9632C8.85321 4.09375 6.33321 6.60375 6.33321 9.71375V13.5007L5.05321 14.7708V14.7607C4.66321 15.1407 4.45321 15.6608 4.45321 16.2008V16.1908C4.44321 17.2508 5.31321 18.1108 6.37321 18.1108H17.5232L17.5692 18.1807Z" stroke="white" stroke-width="1.5" stroke-linecap="round" stroke-linejoin="round"/>
<path d="M22.0195 3L20.0195 4.33" stroke="white" stroke-width="1.5" stroke-linecap="round" stroke-linejoin="round"/>
<path d="M22.9995 9H21.0195" stroke="white" stroke-width="1.5" stroke-linecap="round" stroke-linejoin="round"/>
<path d="M1.98047 3L3.98047 4.33" stroke="white" stroke-width="1.5" stroke-linecap="round" stroke-linejoin="round"/>
<path d="M1 9H2.98" stroke="white" stroke-width="1.5" stroke-linecap="round" stroke-linejoin="round"/>
</svg>
