<svg width="20" height="20" viewBox="0 0 20 20" fill="none" xmlns="http://www.w3.org/2000/svg">
<path d="M9.58216 15C9.35299 15 9.16549 15.1875 9.16799 15.4167C9.16799 15.6458 9.35549 15.8333 9.58466 15.8333C9.81383 15.8333 10.0013 15.6458 10.0013 15.4167C10.0013 15.1875 9.81383 15 9.58216 15Z" stroke="white" stroke-width="1.5" stroke-linecap="round" stroke-linejoin="round"/>
<path d="M9.58216 10C9.35299 10 9.16549 10.1875 9.16799 10.4167C9.16799 10.6458 9.35549 10.8333 9.58466 10.8333C9.81383 10.8333 10.0013 10.6458 10.0013 10.4167C10.0013 10.1875 9.81383 10 9.58216 10Z" stroke="white" stroke-width="1.5" stroke-linecap="round" stroke-linejoin="round"/>
<path d="M9.58216 5C9.35299 5 9.16549 5.1875 9.16799 5.41667C9.16799 5.64583 9.35549 5.83333 9.58466 5.83333C9.81383 5.83333 10.0013 5.64583 10.0013 5.41667C10.0013 5.1875 9.81383 5 9.58216 5Z" stroke="white" stroke-width="1.5" stroke-linecap="round" stroke-linejoin="round"/>
</svg>
