<svg width="26" height="26" viewBox="0 0 26 26" fill="none" xmlns="http://www.w3.org/2000/svg">
<path fill-rule="evenodd" clip-rule="evenodd" d="M22.75 17.3778V8.62227C22.75 7.84769 22.3373 7.13269 21.6667 6.74594L14.0833 2.36819C13.4128 1.98144 12.5873 1.98144 11.9167 2.36819L4.33333 6.74485C3.66275 7.13269 3.25 7.84769 3.25 8.62227V17.3789C3.25 18.1534 3.66275 18.8684 4.33333 19.2552L11.9167 23.6329C12.5873 24.0197 13.4128 24.0197 14.0833 23.6329L21.6667 19.2552C22.3373 18.8674 22.75 18.1524 22.75 17.3778Z" stroke="#3DC1F2" stroke-width="1.5" stroke-linecap="round" stroke-linejoin="round"/>
<path d="M13 23.92V13" stroke="#3DC1F2" stroke-width="1.5" stroke-linecap="round" stroke-linejoin="round"/>
<path d="M13 12.9991L22.4575 7.53906" stroke="#3DC1F2" stroke-width="1.5" stroke-linecap="round" stroke-linejoin="round"/>
<path d="M3.54297 7.53906L13.0005 12.9991" stroke="#3DC1F2" stroke-width="1.5" stroke-linecap="round" stroke-linejoin="round"/>
</svg>
