<svg width="26" height="26" viewBox="0 0 26 26" fill="none" xmlns="http://www.w3.org/2000/svg">
<path fill-rule="evenodd" clip-rule="evenodd" d="M5.41667 5.41602H17.3333C18.5304 5.41602 19.5 6.3856 19.5 7.58268V15.166C19.5 16.3631 18.5304 17.3327 17.3333 17.3327H5.41667C4.21958 17.3327 3.25 16.3631 3.25 15.166V7.58268C3.25 6.3856 4.21958 5.41602 5.41667 5.41602Z" stroke="#3DC1F2" stroke-width="1.5" stroke-linecap="round" stroke-linejoin="round"/>
<path d="M19.5 8.66602H20.5833C21.7804 8.66602 22.75 9.6356 22.75 10.8327V18.416C22.75 19.6131 21.7804 20.5827 20.5833 20.5827H8.66667C7.46958 20.5827 6.5 19.6131 6.5 18.416V17.3327" stroke="#3DC1F2" stroke-width="1.5" stroke-linecap="round" stroke-linejoin="round"/>
<path d="M8.66667 11.916H7.58333C6.98533 11.916 6.5 11.4307 6.5 10.8327V9.74935C6.5 9.15135 6.98533 8.66602 7.58333 8.66602H8.66667C9.26467 8.66602 9.75 9.15135 9.75 9.74935V10.8327C9.75 11.4307 9.26467 11.916 8.66667 11.916Z" stroke="#3DC1F2" stroke-width="1.5" stroke-linecap="round" stroke-linejoin="round"/>
</svg>
