<svg width="26" height="26" viewBox="0 0 26 26" fill="none" xmlns="http://www.w3.org/2000/svg">
<path d="M22.5225 10.3157C23.3784 11.1716 23.3784 12.5592 22.5225 13.4151C21.6666 14.271 20.279 14.271 19.4232 13.4151C18.5673 12.5592 18.5673 11.1716 19.4232 10.3157C20.279 9.45986 21.6666 9.45986 22.5225 10.3157Z" stroke="#3DC1F2" stroke-width="1.5" stroke-linecap="round" stroke-linejoin="round"/>
<path d="M15.3858 6.40441C16.7036 7.72226 16.7036 9.85893 15.3858 11.1768C14.0679 12.4946 11.9313 12.4946 10.6134 11.1768C9.29554 9.85894 9.29554 7.72227 10.6134 6.40441C11.9312 5.08655 14.0679 5.08655 15.3858 6.40441" stroke="#3DC1F2" stroke-width="1.5" stroke-linecap="round" stroke-linejoin="round"/>
<path d="M6.57329 10.3157C7.42916 11.1716 7.42916 12.5592 6.57329 13.4151C5.71743 14.271 4.3298 14.271 3.47393 13.4151C2.61806 12.5592 2.61806 11.1716 3.47393 10.3157C4.3298 9.45986 5.71743 9.45986 6.57329 10.3157Z" stroke="#3DC1F2" stroke-width="1.5" stroke-linecap="round" stroke-linejoin="round"/>
<path d="M24.9159 20.5832V19.3958C24.9159 17.8997 23.7037 16.6875 22.2076 16.6875H21.3398" stroke="#3DC1F2" stroke-width="1.5" stroke-linecap="round" stroke-linejoin="round"/>
<path d="M1.08203 20.5832V19.3958C1.08203 17.8997 2.29428 16.6875 3.79036 16.6875H4.65811" stroke="#3DC1F2" stroke-width="1.5" stroke-linecap="round" stroke-linejoin="round"/>
<path d="M18.7838 20.5827V18.8483C18.7838 16.7542 17.0862 15.0566 14.9921 15.0566H11.0065C8.91243 15.0566 7.21484 16.7542 7.21484 18.8483V20.5827" stroke="#3DC1F2" stroke-width="1.5" stroke-linecap="round" stroke-linejoin="round"/>
</svg>
