<svg width="121" height="120" viewBox="0 0 121 120" fill="none" xmlns="http://www.w3.org/2000/svg">
<path fill-rule="evenodd" clip-rule="evenodd" d="M55.4158 0C43.0029 1.01891 31.2104 5.86968 21.6624 13.8843L39.2986 31.5596C43.9844 27.7319 49.5365 25.2369 55.4158 24.3169V0ZM65.569 0.0248453V24.3175C71.45 25.2367 77.0038 27.7317 81.6911 31.5602L99.1434 14.0691C89.6642 6.03077 77.9375 1.12546 65.569 0.0248453V0.0248453ZM14.4938 21.0888C6.4472 30.6391 1.55755 42.4577 0.5 54.9124H26.3689C27.1507 49.1999 29.2309 43.7669 32.4347 39.0696L14.4938 21.0888ZM106.336 21.2489L88.555 39.0697C91.7588 43.767 93.8389 49.1999 94.6207 54.9125H120.485C119.351 42.4961 114.408 30.7362 106.336 21.2489V21.2489ZM0.5 65.0882C1.63375 77.5046 6.57635 89.2645 14.6486 98.7518L32.4347 80.9262C29.2315 76.2303 27.1515 70.7991 26.3689 65.0882H0.5ZM94.6159 65.0882C93.8348 70.7986 91.7564 76.2298 88.555 80.9262L106.501 98.9118C114.549 89.3621 119.44 77.5435 120.499 65.0882H94.6159ZM39.2986 88.4404L21.8414 105.936C31.3213 113.973 43.0479 118.877 55.4158 119.976V95.6831C49.5365 94.7631 43.9844 92.2681 39.2986 88.4404V88.4404ZM81.6911 88.4404C77.0038 92.2689 71.45 94.7639 65.569 95.6831V120C77.9847 118.984 89.7808 114.135 99.3321 106.121L81.6911 88.4404Z" fill="#1F3F51"/>
</svg>
