<svg width="28" height="28" viewBox="0 0 28 28" fill="none" xmlns="http://www.w3.org/2000/svg">
<path d="M22.1654 8.16797V22.1393V22.1393C22.1654 23.4438 21.1079 24.5013 19.8034 24.5013H8.19404V24.5013C6.88954 24.5013 5.83204 23.4438 5.83203 22.1393V8.16797" stroke="#E09A30" stroke-width="1.5" stroke-linecap="round" stroke-linejoin="round"/>
<path d="M9.33203 12.832H18.6654" stroke="#E09A30" stroke-width="1.5" stroke-linecap="round" stroke-linejoin="round"/>
<path d="M7.00261 9.33333H20.9984V9.33333C21.6427 9.33333 22.1651 8.811 22.1651 8.16667C22.1651 7.91384 22.0829 7.66785 21.931 7.46573L19.6506 4.43147V4.43147C19.2098 3.84502 18.5189 3.5 17.7853 3.5H10.2202V3.5C9.48737 3.5 8.7971 3.84429 8.35627 4.4297L6.0707 7.46486V7.46486C5.6831 7.97957 5.78615 8.71104 6.30086 9.09865C6.50313 9.25096 6.74945 9.33334 7.00265 9.33334L7.00261 9.33333Z" stroke="#E09A30" stroke-width="1.5" stroke-linecap="round" stroke-linejoin="round"/>
<path d="M9.33203 16.332H18.6654" stroke="#E09A30" stroke-width="1.5" stroke-linecap="round" stroke-linejoin="round"/>
<path d="M9.33203 20.5352H12.832" stroke="#E09A30" stroke-width="1.5" stroke-linecap="round" stroke-linejoin="round"/>
<path d="M18.0833 19.832C17.968 19.832 17.8552 19.8662 17.7593 19.9303C17.6633 19.9944 17.5886 20.0855 17.5444 20.1921C17.5003 20.2987 17.4887 20.416 17.5112 20.5292C17.5337 20.6423 17.5893 20.7463 17.6709 20.8278C17.7524 20.9094 17.8564 20.965 17.9695 20.9875C18.0827 21.01 18.2 20.9984 18.3066 20.9543C18.4132 20.9101 18.5043 20.8354 18.5684 20.7395C18.6325 20.6435 18.6667 20.5307 18.6667 20.4154C18.6667 20.2607 18.6052 20.1123 18.4958 20.0029C18.3864 19.8935 18.238 19.832 18.0833 19.832Z" stroke="#E09A30" stroke-linecap="round" stroke-linejoin="round"/>
</svg>
