<svg width="16" height="16" viewBox="0 0 16 16" xmlns="http://www.w3.org/2000/svg">
  <path d="m 12.588102,8.0000001 c 0,-2.5339403 -2.054163,-4.5880996 -4.5881018,-4.5880996 -2.533939,0 -4.588102,2.0541593 -4.588102,4.5880996 0,2.5339409 2.054163,4.5880999 4.588102,4.5880999 2.5339388,0 4.5881018,-2.054159 4.5881018,-4.5880999" fill="#18181b" />
  <path d="M 16,8 A 8,8 0 1 0 0,8 8,8 0 0 0 16,8 m -7.5,3.5 a 0.5,0.5 0 0 1 -1,0 V 5.707 L 5.354,7.854 A 0.5006316,0.5006316 0 1 1 4.646,7.146 l 3,-3 a 0.5,0.5 0 0 1 0.708,0 l 3,3 A 0.5006316,0.5006316 0 0 1 10.646,7.854 L 8.5,5.707 Z" />
</svg>
