<svg width="78" height="78" viewBox="0 0 78 78" fill="none" xmlns="http://www.w3.org/2000/svg">
<path d="M66.5772 11.4228C59.2111 4.05675 49.4171 0 39 0C28.5829 0 18.7889 4.05675 11.4228 11.4228C4.05675 18.7889 0 28.5829 0 39C0 49.4171 4.05675 59.2111 11.4228 66.5772C18.7889 73.9433 28.5829 78 39 78C49.4171 78 59.2111 73.9433 66.5772 66.5772C73.9433 59.2111 78 49.4171 78 39C78 28.5829 73.9433 18.7889 66.5772 11.4228ZM39 74.9531C19.1751 74.9531 3.04688 58.8249 3.04688 39C3.04688 19.1751 19.1751 3.04688 39 3.04688C58.8249 3.04688 74.9531 19.1751 74.9531 39C74.9531 58.8249 58.8249 74.9531 39 74.9531Z" fill="#3DC1F2"/>
<path d="M39 8.22656C33.2984 8.22656 27.7301 9.7982 22.8974 12.7713C22.1809 13.2122 21.9571 14.1501 22.3981 14.8672C22.8385 15.5837 23.7775 15.8069 24.4934 15.3665C28.8459 12.6886 33.862 11.2734 39 11.2734C54.2885 11.2734 66.7266 23.7115 66.7266 39C66.7266 54.2885 54.2885 66.7266 39 66.7266C23.7115 66.7266 11.2734 54.2885 11.2734 39C11.2734 33.8626 12.6886 28.8465 15.3659 24.4946C15.8069 23.7775 15.5831 22.8397 14.8666 22.3987C14.1495 21.9577 13.2117 22.1815 12.7707 22.898C9.79761 27.7307 8.22656 33.2984 8.22656 39C8.22656 55.9685 22.0315 69.7734 39 69.7734C55.9685 69.7734 69.7734 55.9685 69.7734 39C69.7734 22.0315 55.9685 8.22656 39 8.22656Z" fill="#3DC1F2"/>
<path d="M37.4766 34.0494C35.3616 34.7016 33.8203 36.6738 33.8203 39C33.8203 41.8559 36.1441 44.1797 39 44.1797C39.8748 44.1797 40.699 43.9607 41.422 43.5763L53.4619 55.6162C53.7595 55.9137 54.1493 56.0625 54.5391 56.0625C54.9288 56.0625 55.3186 55.9137 55.6162 55.6162C56.2113 55.0211 56.2113 54.057 55.6162 53.4619L43.5763 41.422C43.9607 40.699 44.1797 39.8748 44.1797 39C44.1797 36.6738 42.6384 34.701 40.5234 34.0494V21.9976C40.5234 21.1561 39.8415 20.4742 39 20.4742C38.1585 20.4742 37.4766 21.1561 37.4766 21.9976V34.0494ZM39 41.1328C37.8241 41.1328 36.8672 40.1759 36.8672 39C36.8672 37.8241 37.8241 36.8672 39 36.8672C40.1759 36.8672 41.1328 37.8241 41.1328 39C41.1328 40.1759 40.1759 41.1328 39 41.1328Z" fill="#3DC1F2"/>
<path d="M39 17.4279C39.4005 17.4279 39.7939 17.2648 40.0771 16.9816C40.3604 16.6983 40.5234 16.3055 40.5234 15.9044C40.5234 15.5028 40.3604 15.1112 40.0771 14.8273C39.7939 14.5429 39.4005 14.381 39 14.381C38.5995 14.381 38.2061 14.5429 37.9229 14.8273C37.6396 15.1112 37.4766 15.504 37.4766 15.9044C37.4766 16.3055 37.6396 16.6971 37.9229 16.9816C38.2061 17.2648 38.5995 17.4279 39 17.4279Z" fill="#3DC1F2"/>
<path d="M37.9229 61.0184C37.6396 61.3029 37.4766 61.6945 37.4766 62.0956C37.4766 62.4972 37.6396 62.8888 37.9229 63.1727C38.2061 63.4571 38.5995 63.619 39 63.619C39.4005 63.619 39.7939 63.4571 40.0771 63.1727C40.3604 62.8888 40.5234 62.4972 40.5234 62.0956C40.5234 61.6945 40.3604 61.3017 40.0771 61.0184C39.7939 60.7352 39.4005 60.5733 39 60.5733C38.5995 60.5733 38.2061 60.7352 37.9229 61.0184Z" fill="#3DC1F2"/>
<path d="M63.1739 40.0771C63.4571 39.7939 63.619 39.4005 63.619 39C63.619 38.5995 63.4571 38.2061 63.1739 37.9229C62.8888 37.6396 62.4978 37.4766 62.0956 37.4766C61.6945 37.4766 61.3029 37.6396 61.0184 37.9229C60.7352 38.2061 60.5721 38.5995 60.5721 39C60.5721 39.4005 60.7352 39.7939 61.0184 40.0771C61.3029 40.3604 61.6945 40.5234 62.0956 40.5234C62.4972 40.5234 62.8888 40.3604 63.1739 40.0771Z" fill="#3DC1F2"/>
<path d="M14.381 39C14.381 39.4005 14.5429 39.7939 14.8261 40.0771C15.1106 40.3604 15.5022 40.5234 15.9044 40.5234C16.3055 40.5234 16.6965 40.3604 16.9816 40.0771C17.2648 39.7939 17.4279 39.4005 17.4279 39C17.4279 38.5995 17.2648 38.2061 16.9816 37.9229C16.6965 37.6396 16.3055 37.4766 15.9044 37.4766C15.5022 37.4766 15.1106 37.6396 14.8261 37.9229C14.5429 38.2061 14.381 38.5995 14.381 39Z" fill="#3DC1F2"/>
<path d="M18.3164 19.841C18.7186 19.841 19.1096 19.6785 19.3947 19.3947C19.6779 19.1114 19.841 18.7186 19.841 18.3176C19.841 17.9159 19.6785 17.5243 19.3947 17.2392C19.1096 16.956 18.7186 16.7941 18.3164 16.7941C17.9153 16.7941 17.5225 16.956 17.2392 17.2392C16.956 17.5243 16.7929 17.9171 16.7929 18.3176C16.7929 18.7186 16.956 19.1102 17.2392 19.3947C17.5225 19.6785 17.9159 19.841 18.3164 19.841Z" fill="#3DC1F2"/>
</svg>
