<svg width="135" height="70" viewBox="0 0 135 70" fill="none" xmlns="http://www.w3.org/2000/svg">
<g clip-path="url(#clip0_135_621)">
<path d="M100.89 24.988C101.71 25.2927 102.607 25.313 103.459 25.1173C107.032 24.2972 119.318 22.1257 117.183 31.6459C116.718 33.5348 109.523 44.1129 119.77 47.9743C120.521 48.2608 121.315 48.4172 122.118 48.4368C125.273 48.5018 131.525 47.7569 134.142 45.0933C137.303 41.8756 133.85 43.4015 133.85 43.4015C133.85 43.4015 121.833 48.6456 117.588 43.082C117.116 42.463 116.815 41.5639 116.729 40.7898C116.579 39.4479 117.175 37.6745 117.958 36.1308C119.017 34.0414 124.104 24.6426 113.061 21.9046C110.517 21.2988 106.822 20.7546 102.058 22.7604C99.2789 23.9304 99.8945 24.6181 100.89 24.988Z" fill="white"/>
<path d="M103.349 21.4785L100.151 22.6756C99.0464 23.0888 98.4864 24.3189 98.8996 25.423L99.0581 25.8466C99.4714 26.9507 100.701 27.5108 101.806 27.0976L105.004 25.9005C106.108 25.4873 106.668 24.2572 106.255 23.1531L106.096 22.7295C105.683 21.6254 104.453 21.0653 103.349 21.4785Z" fill="#114862"/>
<path d="M83.7161 24.9426L73.1676 28.8905C72.6155 29.0972 72.3355 29.7122 72.5421 30.2642L72.5836 30.3753C72.7902 30.9273 73.4053 31.2074 73.9573 31.0007L84.5058 27.0528C85.0579 26.8462 85.3379 26.2312 85.1313 25.6791L85.0898 25.5681C84.8831 25.0161 84.2681 24.736 83.7161 24.9426Z" fill="white"/>
<path d="M86.6599 32.8088L76.1114 36.7567C75.5594 36.9634 75.2793 37.5784 75.4859 38.1305L75.5275 38.2415C75.7341 38.7935 76.3491 39.0736 76.9012 38.867L87.4497 34.919C88.0018 34.7124 88.2818 34.0974 88.0752 33.5453L88.0337 33.4343C87.827 32.8822 87.212 32.6022 86.6599 32.8088Z" fill="white"/>
<path d="M96.3991 19.5745L87.8498 22.7742C86.7457 23.1875 86.1856 24.4175 86.5988 25.5216L89.5177 33.3207C89.9309 34.4248 91.161 34.9849 92.2651 34.5716L100.814 31.3719C101.919 30.9587 102.479 29.7287 102.065 28.6245L99.1465 20.8255C98.7333 19.7214 97.5032 19.1613 96.3991 19.5745Z" fill="#2EC7FF"/>
<path d="M88.7331 21.6204L80.1838 24.8201C79.0796 25.2334 78.5196 26.4634 78.9328 27.5675L82.4151 36.8721C82.8284 37.9762 84.0584 38.5363 85.1625 38.1231L93.7119 34.9234C94.816 34.5101 95.3761 33.2801 94.9628 32.176L91.4805 22.8714C91.0673 21.7673 89.8372 21.2072 88.7331 21.6204Z" fill="#2EC7FF"/>
<path d="M90.0712 19.732L90.0042 19.757C89.2681 20.0325 88.8947 20.8526 89.1702 21.5886L94.0486 34.6233C94.3241 35.3594 95.1441 35.7328 95.8802 35.4573L95.9472 35.4322C96.6833 35.1567 97.0567 34.3367 96.7812 33.6006L91.9028 20.5659C91.6273 19.8299 90.8073 19.4565 90.0712 19.732Z" fill="#114862"/>
<path d="M2.89563 28.0666C2.89563 28.0666 20.0656 23.2413 17.5728 34.3582C17.1399 36.1172 10.9083 45.1743 18.3311 49.5229C19.9249 50.4566 21.7643 50.8702 23.6114 50.8606C26.9231 50.8433 32.1732 50.2059 34.5317 47.8053C37.6926 44.5876 34.2394 46.1135 34.2394 46.1135C34.2394 46.1135 24.3784 50.1697 19.3053 46.9364C17.573 45.8323 16.7878 43.6947 17.2582 41.6951C17.4987 40.7018 17.8648 39.7433 18.3478 38.8427C19.4511 36.7762 24.4935 27.3545 13.4504 24.6165C10.9065 24.0107 7.21168 23.4665 2.44758 25.4724C-2.31652 27.4782 2.89563 28.0666 2.89563 28.0666Z" fill="white"/>
<path d="M36.8407 43.625L33.6423 44.8221C32.5381 45.2353 31.9781 46.4654 32.3913 47.5695L32.5498 47.9931C32.9631 49.0973 34.1931 49.6573 35.2972 49.2441L38.4957 48.047C39.5999 47.6338 40.1599 46.4037 39.7467 45.2996L39.5882 44.876C39.1749 43.7719 37.9449 43.2118 36.8407 43.625Z" fill="#114862"/>
<path d="M42.2444 38.3634L37.5041 40.1375C36.3999 40.5508 35.8399 41.7808 36.2531 42.8849L38.5389 48.9923C38.9521 50.0965 40.1822 50.6565 41.2863 50.2433L46.0266 48.4692C47.1307 48.0559 47.6908 46.8259 47.2776 45.7218L44.9918 39.6144C44.5786 38.5102 43.3485 37.9502 42.2444 38.3634Z" fill="#2EC7FF"/>
<path d="M50.1362 33.6607L43.0671 36.3065C41.9629 36.7197 41.4029 37.9498 41.8161 39.0539L45.2984 48.3584C45.7117 49.4626 46.9417 50.0226 48.0458 49.6094L55.115 46.9637C56.2191 46.5504 56.7792 45.3204 56.366 44.2163L52.8836 34.9117C52.4704 33.8076 51.2403 33.2475 50.1362 33.6607Z" fill="#2EC7FF"/>
<path d="M51.6337 31.7339L51.5667 31.759C50.8306 32.0345 50.4572 32.8545 50.7327 33.5906L55.6111 46.6253C55.8866 47.3613 56.7066 47.7347 57.4427 47.4592L57.5097 47.4341C58.2458 47.1587 58.6192 46.3386 58.3437 45.6025L53.4653 32.5679C53.1898 31.8318 52.3698 31.4584 51.6337 31.7339Z" fill="#114862"/>
<path d="M69.6851 23.4302C69.4305 23.4019 69.1968 23.276 69.0332 23.0789C68.8696 22.8819 68.7889 22.629 68.8079 22.3736L69.3354 12.7393C69.3668 12.1638 69.8528 11.7266 70.4043 11.7775L71.1728 11.8486C71.7243 11.8995 72.1191 12.4179 72.042 12.9893L70.7459 22.5524C70.7161 22.8071 70.5892 23.0405 70.3916 23.204C70.194 23.3676 69.9409 23.4486 69.6851 23.4302Z" fill="#2EC7FF"/>
<path d="M65.1306 24.2605C65.0515 24.2838 64.9685 24.2912 64.8864 24.2824C64.8044 24.2736 64.7248 24.2487 64.6524 24.2092C64.58 24.1696 64.516 24.1162 64.4642 24.0519C64.4125 23.9877 64.3738 23.9139 64.3506 23.8347L62.467 17.8417C62.4122 17.6712 62.4273 17.486 62.5089 17.3267C62.5905 17.1673 62.732 17.0469 62.9023 16.9917L63.39 16.8446C63.4737 16.8202 63.5615 16.8134 63.6479 16.8246C63.7344 16.8358 63.8176 16.8649 63.8922 16.9099C63.9669 16.9549 64.0314 17.0148 64.0817 17.086C64.132 17.1572 64.167 17.2381 64.1844 17.3235L65.5805 23.4637C65.6194 23.6287 65.5947 23.8024 65.5113 23.95C65.428 24.0977 65.2921 24.2086 65.1306 24.2605Z" fill="#2EC7FF"/>
<path d="M62.5892 27.7168C62.2517 28.135 61.573 28.13 61.0505 27.7055L51.7742 20.1688C51.2201 19.7186 51.0566 18.9734 51.4146 18.5301L51.9136 17.9119C52.2717 17.4684 53.0071 17.5048 53.5314 17.9919L62.3087 26.1469C62.803 26.6061 62.9267 27.2986 62.5892 27.7168Z" fill="#2EC7FF"/>
<path d="M66.8767 47.1829C67.1156 47.2752 67.3094 47.4566 67.4173 47.6889C67.5251 47.9213 67.5386 48.1864 67.455 48.4285L64.4845 57.6082C64.3071 58.1566 63.7256 58.455 63.2053 58.2652L62.4802 58.0003C61.96 57.8102 61.7103 57.208 61.9311 56.6755L65.6266 47.7606C65.7204 47.5218 65.9028 47.3284 66.1357 47.2208C66.3686 47.1131 66.634 47.0995 66.8767 47.1829Z" fill="#2EC7FF"/>
<path d="M71.4926 47.5432C71.5751 47.5409 71.6573 47.5549 71.7344 47.5844C71.8114 47.6139 71.882 47.6582 71.9419 47.715C72.0019 47.7717 72.05 47.8397 72.0837 47.915C72.1174 47.9904 72.1359 48.0716 72.1381 48.1541L72.4287 54.4295C72.4381 54.6083 72.3763 54.7835 72.2567 54.9167C72.1371 55.0499 71.9695 55.1303 71.7908 55.1401L71.2816 55.1578C71.1944 55.1601 71.1078 55.1442 71.0271 55.1113C70.9464 55.0783 70.8734 55.029 70.8127 54.9664C70.752 54.9038 70.7049 54.8294 70.6745 54.7477C70.644 54.666 70.6309 54.5789 70.6358 54.4919L70.8544 48.1988C70.859 48.0293 70.9271 47.8678 71.0454 47.7463C71.1637 47.6248 71.3233 47.5523 71.4926 47.5432Z" fill="#2EC7FF"/>
<path d="M74.8325 44.8509C75.2657 44.5328 75.9206 44.7109 76.3174 45.2548L83.3613 54.9104C83.782 55.4872 83.7499 56.2492 83.2901 56.5866L82.6498 57.0568C82.1904 57.3942 81.4887 57.1712 81.1061 56.5663L74.7023 46.4401C74.3422 45.8701 74.3994 45.169 74.8325 44.8509Z" fill="#2EC7FF"/>
</g>
<defs>
<clipPath id="clip0_135_621">
<rect width="134" height="70" fill="white" transform="translate(0.5)"/>
</clipPath>
</defs>
</svg>
