<svg width="13" height="11" viewBox="0 0 13 11" fill="none" xmlns="http://www.w3.org/2000/svg">
<path d="M7.58644 7.00452C7.26301 7.22598 6.88733 7.34304 6.5 7.34304C6.11269 7.34304 5.73701 7.22598 5.41359 7.00452L0.0865566 3.35693C0.0570019 3.3367 0.028209 3.3156 0 3.2939V9.27087C0 9.95615 0.541455 10.5 1.19674 10.5H11.8032C12.4705 10.5 13 9.94389 13 9.27087V3.29388C12.9717 3.31563 12.9429 3.33678 12.9132 3.35704L7.58644 7.00452Z" />
<path d="M0.509082 2.70598L5.83611 6.35359C6.03776 6.49168 6.26887 6.5607 6.49997 6.5607C6.73111 6.5607 6.96224 6.49165 7.16389 6.35359L12.4909 2.70598C12.8097 2.48784 13 2.12275 13 1.72871C13 1.05118 12.4633 0.5 11.8037 0.5H1.19633C0.536682 0.500026 0 1.05121 0 1.72936C0 2.12275 0.190328 2.48784 0.509082 2.70598Z" />
</svg>
