<svg width="9" height="13" viewBox="0 0 9 13" fill="none" xmlns="http://www.w3.org/2000/svg">
<path d="M6.20769 3.80859C5.76233 3.80859 5.4 3.40994 5.4 2.91992V0H1.26923C0.569377 0 0 0.626463 0 1.39648V11.6035C0 12.3735 0.569377 13 1.26923 13H7.73077C8.43062 13 9 12.3735 9 11.6035V3.80859H6.20769ZM1.89231 9.14062H3.57046C3.76163 9.14062 3.91662 9.31115 3.91662 9.52148C3.91662 9.73182 3.76163 9.90234 3.57046 9.90234H1.89231C1.70114 9.90234 1.54615 9.73182 1.54615 9.52148C1.54615 9.31115 1.70114 9.14062 1.89231 9.14062ZM1.54615 7.49023C1.54615 7.2799 1.70114 7.10938 1.89231 7.10938H6.96923C7.1604 7.10938 7.31538 7.2799 7.31538 7.49023C7.31538 7.70057 7.1604 7.87109 6.96923 7.87109H1.89231C1.70114 7.87109 1.54615 7.70057 1.54615 7.49023ZM6.96923 5.07812C7.1604 5.07812 7.31538 5.24865 7.31538 5.45898C7.31538 5.66932 7.1604 5.83984 6.96923 5.83984H1.89231C1.70114 5.83984 1.54615 5.66932 1.54615 5.45898C1.54615 5.24865 1.70114 5.07812 1.89231 5.07812H6.96923Z" />
<path d="M6.09231 2.91992C6.09231 2.98992 6.14407 3.04688 6.20769 3.04688H8.84571C8.78238 2.91825 8.70092 2.8001 8.60305 2.69821L6.37791 0.382027C6.29155 0.292145 6.19537 0.217166 6.09233 0.157955V2.91992H6.09231Z" />
</svg>
