<svg width="23" height="24" viewBox="0 0 23 24" fill="none" xmlns="http://www.w3.org/2000/svg">
<path d="M11.2223 0C5.05839 0 0 5.26069 0 11.6711C0 17.1414 3.69088 22.1106 8.59208 23.3422V19.4809C8.10645 19.5915 7.65951 19.5947 7.16515 19.4432C6.50194 19.2396 5.96305 18.7802 5.56304 18.0796C5.30806 17.6322 4.85616 17.1471 4.38474 17.1827L4.26916 15.8204C5.28854 15.7295 6.17042 16.4663 6.6939 17.3809C6.92644 17.7877 7.19409 18.0261 7.53759 18.1316C7.86962 18.2333 8.22614 18.1845 8.64157 18.0318C8.74585 17.1669 9.12686 16.8431 9.41471 16.3872V16.3865C6.49166 15.9331 5.32673 14.3203 4.86438 13.0474C4.25169 11.3571 4.58047 9.24557 5.6639 7.91116C5.68496 7.88516 5.72297 7.81713 5.70825 7.76958C5.21148 6.209 5.81681 4.91805 5.83907 4.7811C6.41238 4.95741 6.50553 4.60373 8.3294 5.75613L8.64465 5.95309C8.7765 6.03483 8.73506 5.98818 8.86692 5.97785C9.62842 5.76272 10.4312 5.64393 11.2221 5.63325C12.0191 5.64393 12.8167 5.76272 13.6097 5.98657L13.7118 5.99726C13.7029 5.99583 13.7395 5.99049 13.801 5.95238C16.0793 4.51718 15.9975 4.98626 16.6085 4.77968C16.6305 4.9168 17.2278 6.22877 16.7364 7.76958C16.6701 7.98186 18.7116 9.92604 17.5801 13.0468C17.1177 14.3203 15.953 15.9331 13.0299 16.3865V16.3872C13.4046 16.9811 13.8548 17.2971 13.8524 18.5223V23.3422C18.7537 22.1106 22.4444 17.1414 22.4444 11.6711C22.4446 5.26069 17.3862 0 11.2223 0Z" />
</svg>
