<svg width="16" height="16" viewBox="0 0 16 16" fill="none" xmlns="http://www.w3.org/2000/svg">
<path d="M15.9683 5.70092C16.0322 5.47319 15.9987 5.23058 15.8753 5.02643L14.6342 2.97363C14.3772 2.5485 13.808 2.40284 13.3628 2.6483L12.5187 3.11366C11.8329 2.53321 11.0384 2.09476 10.1719 1.81849V0.888889C10.1719 0.397985 9.75513 0 9.24109 0H6.75901C6.24498 0 5.82824 0.397985 5.82824 0.888889V1.81843C4.96168 2.0947 4.16717 2.53316 3.48131 3.1136L2.63734 2.64824C2.19218 2.40267 1.62285 2.54839 1.36589 2.97357L0.124853 5.02637C-0.132166 5.4515 0.020358 5.99514 0.465519 6.24059L1.3093 6.70584C1.21957 7.13031 1.17428 7.56332 1.17428 7.99994C1.17428 8.43656 1.21951 8.86963 1.3093 9.29404L0.465519 9.75929C0.020358 10.0047 -0.132166 10.5484 0.124853 10.9735L1.36589 13.0263C1.62291 13.4515 2.19211 13.5972 2.63734 13.3516L3.48131 12.8863C4.16717 13.4668 4.96162 13.9052 5.82824 14.1815V15.1111C5.82824 15.602 6.24498 16 6.75901 16H9.24109C9.75513 16 10.1719 15.602 10.1719 15.1111V14.1816C11.0384 13.9053 11.8329 13.4668 12.5187 12.8864L13.3628 13.3518C13.8079 13.5972 14.3772 13.4515 14.6342 13.0264L15.8753 10.9736C15.9987 10.7695 16.0321 10.5268 15.9683 10.2991C15.9044 10.0714 15.7484 9.87727 15.5346 9.75941L14.6907 9.2941C14.7805 8.86969 14.8257 8.43668 14.8257 8C14.8257 7.56332 14.7805 7.13031 14.6907 6.7059L15.5346 6.24059C15.7484 6.12279 15.9044 5.92859 15.9683 5.70092ZM7.99999 10.3704C6.6292 10.3704 5.51791 9.3091 5.51791 8C5.51791 6.6909 6.6292 5.62963 7.99999 5.62963C9.37078 5.62963 10.4821 6.6909 10.4821 8C10.4821 9.3091 9.37078 10.3704 7.99999 10.3704Z" fill="white"/>
</svg>
