<svg width="18" height="18" viewBox="0 0 18 18" fill="none" xmlns="http://www.w3.org/2000/svg">
<path d="M11.25 17.0626H6.74999C5.75999 17.0626 4.93499 16.9651 4.23749 16.7551C3.98249 16.6801 3.81749 16.4326 3.83249 16.1701C4.01999 13.9276 6.29249 12.165 8.99999 12.165C11.7075 12.165 13.9725 13.9201 14.1675 16.1701C14.19 16.4401 14.025 16.6801 13.7625 16.7551C13.065 16.9651 12.24 17.0626 11.25 17.0626ZM5.03999 15.7951C5.53499 15.8926 6.09749 15.9376 6.74999 15.9376H11.25C11.9025 15.9376 12.465 15.8926 12.96 15.7951C12.5625 14.3551 10.92 13.29 8.99999 13.29C7.07999 13.29 5.43749 14.3551 5.03999 15.7951Z" />
<path d="M11.25 1.5H6.75C3 1.5 1.5 3 1.5 6.75V11.25C1.5 14.085 2.355 15.6375 4.395 16.215C4.56 14.265 6.5625 12.7275 9 12.7275C11.4375 12.7275 13.44 14.265 13.605 16.215C15.645 15.6375 16.5 14.085 16.5 11.25V6.75C16.5 3 15 1.5 11.25 1.5ZM9 10.6275C7.515 10.6275 6.315 9.42001 6.315 7.93501C6.315 6.45001 7.515 5.25 9 5.25C10.485 5.25 11.685 6.45001 11.685 7.93501C11.685 9.42001 10.485 10.6275 9 10.6275Z" stroke="white" stroke-width="1.5" stroke-linecap="round" stroke-linejoin="round"/>
<path d="M8.99994 11.19C7.20744 11.19 5.75244 9.72751 5.75244 7.93501C5.75244 6.14251 7.20744 4.6875 8.99994 4.6875C10.7924 4.6875 12.2474 6.14251 12.2474 7.93501C12.2474 9.72751 10.7924 11.19 8.99994 11.19ZM8.99994 5.8125C7.82994 5.8125 6.87744 6.76501 6.87744 7.93501C6.87744 9.11251 7.82994 10.065 8.99994 10.065C10.1699 10.065 11.1224 9.11251 11.1224 7.93501C11.1224 6.76501 10.1699 5.8125 8.99994 5.8125Z" />
</svg>
