<svg width="18" height="18" viewBox="0 0 18 18" fill="none" xmlns="http://www.w3.org/2000/svg">
<path d="M9 0C4.03583 0 0 4.03583 0 9C0 13.9642 4.03583 18 9 18C13.9642 18 18 13.9642 18 9C18 4.03583 13.9642 0 9 0ZM9 16.2C5.0315 16.2 1.8 12.9685 1.8 9C1.8 5.0315 5.0315 1.8 9 1.8C12.9685 1.8 16.2 5.0315 16.2 9C16.2 12.9685 12.9685 16.2 9 16.2Z" fill="white"/>
<path d="M9 4.5C6.51969 4.5 4.5 6.51969 4.5 9C4.5 11.4803 6.51969 13.5 9 13.5C11.4803 13.5 13.5 11.4803 13.5 9C13.5 6.51969 11.4803 4.5 9 4.5Z" fill="white"/>
</svg>
