<svg width="19" height="18" viewBox="0 0 19 18" fill="none" xmlns="http://www.w3.org/2000/svg">
<path d="M9.125 16.3125C4.8875 16.3125 1.4375 12.8625 1.4375 8.625C1.4375 4.3875 4.8875 0.9375 9.125 0.9375C13.3625 0.9375 16.8125 4.3875 16.8125 8.625C16.8125 12.8625 13.3625 16.3125 9.125 16.3125ZM9.125 2.0625C5.5025 2.0625 2.5625 5.01 2.5625 8.625C2.5625 12.24 5.5025 15.1875 9.125 15.1875C12.7475 15.1875 15.6875 12.24 15.6875 8.625C15.6875 5.01 12.7475 2.0625 9.125 2.0625Z" />
<path d="M17 17.0626C16.8575 17.0626 16.715 17.0101 16.6025 16.8976L15.1025 15.3976C14.885 15.1801 14.885 14.8201 15.1025 14.6026C15.32 14.3851 15.68 14.3851 15.8975 14.6026L17.3975 16.1026C17.615 16.3201 17.615 16.6801 17.3975 16.8976C17.285 17.0101 17.1425 17.0626 17 17.0626Z" />
</svg>
