<svg width="24" height="24" viewBox="0 0 24 24" fill="none" xmlns="http://www.w3.org/2000/svg">
<path d="M12.3289 0C5.88312 0 0.657776 5.22534 0.657776 11.6711C0.657776 18.1169 5.88312 23.3422 12.3289 23.3422C18.7747 23.3422 24 18.1169 24 11.6711C24 5.22534 18.7747 0 12.3289 0ZM16.3107 12.9379L12.3647 15.7898C12.2215 17.3309 10.9035 18.5369 9.31569 18.5369C8.61819 18.5374 7.9413 18.3005 7.39634 17.8651C6.85139 17.4298 6.47083 16.8219 6.31724 16.1415L4.24109 15.3166V11.4805L7.74914 12.8835C8.29661 12.5567 8.91159 12.4102 9.6274 12.4731L12.1879 8.83811C12.2047 6.61019 14.0451 4.80528 16.3023 4.80528C18.5722 4.80528 20.4125 6.63115 20.4167 8.86743C20.4167 11.1202 18.5721 12.9379 16.3107 12.9379Z" />
<path d="M9.31569 13.2562C9.15131 13.2557 8.98741 13.2739 8.82718 13.3106L9.76633 13.6875C9.98428 13.7723 10.1832 13.8995 10.3516 14.0618C10.52 14.224 10.6546 14.4181 10.7474 14.6327C10.8402 14.8474 10.8896 15.0783 10.8925 15.3122C10.8954 15.546 10.8519 15.7781 10.7644 15.995C10.6758 16.2132 10.5449 16.4119 10.3794 16.5795C10.2139 16.7471 10.017 16.8805 9.79988 16.9719C9.58278 17.0633 9.34977 17.111 9.11421 17.1122C8.87864 17.1134 8.64515 17.0682 8.42709 16.9791C8.06071 16.8367 7.68593 16.6818 7.31955 16.5436C7.50332 16.8989 7.77839 17.1989 8.11651 17.4127C8.45462 17.6265 8.84357 17.7464 9.24338 17.7601C9.64319 17.7738 10.0394 17.6808 10.3914 17.4906C10.7433 17.3004 11.0383 17.0199 11.2459 16.678C11.4535 16.336 11.5663 15.9449 11.5728 15.545C11.5792 15.145 11.479 14.7505 11.2824 14.4021C11.0859 14.0536 10.8001 13.7638 10.4544 13.5624C10.1088 13.361 9.71573 13.2553 9.31569 13.2562Z" />
<path d="M16.3064 6.14535C14.7777 6.14535 13.5438 7.36821 13.5438 8.87173C13.5438 10.3835 14.7819 11.5981 16.3064 11.5981C17.8183 11.6023 19.0608 10.3836 19.0564 8.87173C19.0564 7.36821 17.8183 6.14535 16.3064 6.14535ZM16.3001 10.5089C15.977 10.5054 15.6622 10.4065 15.3952 10.2245C15.1283 10.0425 14.9211 9.78553 14.7999 9.48604C14.6786 9.18655 14.6487 8.85789 14.7138 8.54142C14.779 8.22495 14.9363 7.93483 15.166 7.70759C15.3957 7.48034 15.6875 7.32613 16.0046 7.26437C16.3217 7.20261 16.6501 7.23605 16.9483 7.3605C17.2464 7.48494 17.5011 7.69482 17.6803 7.96371C17.8594 8.2326 17.955 8.54848 17.955 8.87158C17.9542 9.08786 17.9108 9.30185 17.8271 9.50129C17.7435 9.70073 17.6212 9.8817 17.4675 10.0338C17.3138 10.1859 17.1315 10.3062 16.9312 10.3877C16.7309 10.4692 16.5164 10.5104 16.3001 10.5089H16.3001Z" />
</svg>
