<svg width="24" height="24" viewBox="0 0 24 24" fill="none" xmlns="http://www.w3.org/2000/svg">
<path d="M16.3479 8.26925L10.1503 13.3356C10.0891 13.3841 10.0491 13.4545 10.0389 13.5319L9.97652 14.0464L9.80543 15.4921C9.80702 15.5097 9.80155 15.5272 9.79023 15.5407C9.77891 15.5543 9.76267 15.5628 9.74509 15.5644C9.7275 15.5659 9.71 15.5605 9.69645 15.5491C9.68289 15.5378 9.67439 15.5216 9.67281 15.504L9.19137 14.0584L8.69403 12.5796C8.6728 12.5133 8.67552 12.4417 8.7017 12.3772C8.72787 12.3128 8.77585 12.2595 8.83726 12.2268L16.1556 8.03317C16.324 7.93503 16.4964 8.14723 16.3479 8.26925Z" />
<path d="M11.6622 0C9.35387 0 7.09739 0.684499 5.17808 1.96694C3.25878 3.24937 1.76286 5.07215 0.879504 7.20477C-0.00385418 9.33738 -0.234981 11.6841 0.215351 13.948C0.665683 16.212 1.77725 18.2916 3.40948 19.9238C5.04172 21.5561 7.12131 22.6676 9.38528 23.118C11.6493 23.5683 13.9959 23.3372 16.1285 22.4538C18.2612 21.5704 20.0839 20.0745 21.3664 18.1552C22.6488 16.2359 23.3333 13.9794 23.3333 11.6711C23.3333 8.57574 22.1037 5.60715 19.9149 3.41839C17.7262 1.22963 14.7576 0 11.6622 0ZM18.9421 6.75598L16.6635 16.8236C16.5561 17.2958 15.9566 17.5093 15.5362 17.2215L12.0959 14.8873L10.3439 16.5438C10.2725 16.6108 10.1857 16.6594 10.0913 16.6854C9.9968 16.7113 9.89743 16.7138 9.80178 16.6926C9.70613 16.6714 9.61708 16.6272 9.54238 16.5639C9.46767 16.5005 9.40956 16.4199 9.37307 16.3289L8.10782 12.6154L4.71657 11.687C4.62175 11.6663 4.53642 11.6149 4.47386 11.5407C4.4113 11.4665 4.375 11.3737 4.37062 11.2767C4.36623 11.1798 4.394 11.0841 4.44961 11.0046C4.50521 10.925 4.58554 10.8661 4.6781 10.8369L17.7789 6.11672L18.0203 6.03051C18.5283 5.8528 19.0535 6.26394 18.9421 6.75598Z" />
</svg>
