<svg width="16" height="19" viewBox="0 0 16 19" fill="none" xmlns="http://www.w3.org/2000/svg">
<path d="M16 5.08877C16.0005 5.1845 15.982 5.2794 15.9456 5.36802C15.9091 5.45665 15.8553 5.53725 15.7873 5.60522L11.3873 9.96963C11.3188 10.037 11.2375 10.0904 11.1482 10.1266C11.0588 10.1628 10.9632 10.1811 10.8667 10.1806C10.7713 10.1817 10.6767 10.1644 10.588 10.1297C10.4529 10.0746 10.3375 9.98083 10.2565 9.86031C10.1755 9.73979 10.1326 9.59803 10.1333 9.45318V7.27097H3.53334C3.33884 7.27097 3.15232 7.19433 3.01479 7.05792C2.87726 6.92151 2.8 6.73649 2.8 6.54357V3.63396C2.8 3.44104 2.87726 3.25603 3.01479 3.11961C3.15232 2.9832 3.33884 2.90656 3.53334 2.90656H10.1333V0.724353C10.1339 0.580493 10.1775 0.440041 10.2586 0.320759C10.3397 0.201477 10.4546 0.108722 10.5888 0.0542205C10.7231 -0.000280507 10.8706 -0.0140793 11.0127 0.0145696C11.1548 0.0432185 11.2852 0.113028 11.3873 0.215171L15.7873 4.57958C15.9228 4.71507 15.9992 4.89794 16 5.08877ZM12.4667 11.7258H5.86667V9.54357C5.86595 9.39996 5.82239 9.25978 5.74148 9.14069C5.66057 9.0216 5.54593 8.92893 5.41201 8.87436C5.27846 8.81866 5.13127 8.80344 4.98901 8.83062C4.84675 8.85781 4.7158 8.92618 4.61267 9.02711L0.212679 13.3915C0.144712 13.4595 0.0909405 13.5401 0.0544466 13.6287C0.0179526 13.7174 -0.00054573 13.8123 1.22572e-05 13.908C-0.00054573 14.0037 0.0179526 14.0986 0.0544466 14.1872C0.0909405 14.2759 0.144712 14.3565 0.212679 14.4244L4.61267 18.7889C4.6812 18.8563 4.76246 18.9096 4.85181 18.9458C4.94116 18.982 5.03683 19.0004 5.13334 18.9998C5.22954 19.0023 5.32498 18.9823 5.41201 18.9416C5.54593 18.887 5.66057 18.7944 5.74148 18.6753C5.82239 18.5562 5.86595 18.416 5.86667 18.2724V16.0902H12.4667C12.6612 16.0902 12.8477 16.0136 12.9852 15.8771C13.1227 15.7407 13.2 15.5557 13.2 15.3628V12.4532C13.2 12.2603 13.1227 12.0752 12.9852 11.9388C12.8477 11.8024 12.6612 11.7258 12.4667 11.7258Z" fill="white"/>
</svg>
