<svg width="25" height="25" viewBox="0 0 25 25" fill="none" xmlns="http://www.w3.org/2000/svg">
<path fill-rule="evenodd" clip-rule="evenodd" d="M12.7746 1C9.59521 1 6.54601 2.26365 4.29783 4.51296C2.04964 6.76227 0.786621 9.81299 0.786621 12.994C0.787151 16.1747 2.0504 19.2249 4.29853 21.4737C6.54666 23.7226 9.59555 24.986 12.7746 24.986C15.9537 24.986 19.0026 23.7226 21.2507 21.4737C23.4988 19.2249 24.7621 16.1747 24.7626 12.994C24.7626 11.4189 24.4525 9.85927 23.8501 8.40409C23.2476 6.94892 22.3646 5.62671 21.2514 4.51296C20.1382 3.39922 18.8167 2.51574 17.3622 1.91299C15.9078 1.31023 14.3489 1 12.7746 1ZM9.80582 6.0449H5.38982L11.1202 13.709L5.35462 19.9414H6.65152L11.7003 14.4863L15.7784 19.9414H20.1944L14.1417 11.8457L19.5089 6.0449H18.212L13.5636 11.0703L9.80582 6.0449Z" yastroke="white" stroke-width="0.024911" stroke-miterlimit="10"/>
</svg>
