<svg width="16" height="16" fill="currentColor" viewBox="0 0 16 16" xmlns="http://www.w3.org/2000/svg">
<path d="m7.3448 0c-1.7241.13929-3.2943.82342-4.5382 1.88l2.9155 2.9155c.4737-.3373 1.0253-.57222 1.6227-.67245zm2.933 4.7955c-.47363-.3373-1.0253-.57222-1.6226-.67245v-4.1231c1.7241.13929 3.2943.82342 4.5381 1.88zm1.5991 2.5493c-.10027-.59736-.33516-1.149-.67245-1.6227l2.9155-2.9155c1.0566 1.2439 1.7407 2.8141 1.88 4.5382zm-.67245 2.9331c.33729-.47364.57222-1.0253.67245-1.6226h4.1231c-.13932 1.724-.82342 3.2942-1.88 4.5381zm-2.5493 1.5991c.59731-.10024 1.149-.33515 1.6226-.67246l2.9155 2.9155c-1.2439 1.0566-2.814 1.7407-4.5381 1.88zm-2.9331-.67246c.4737.33731 1.0253.57222 1.6227.67246v4.1231c-1.7241-.13927-3.2943-.82342-4.5382-1.88zm-1.5991-2.5492c.10027.59732.33516 1.149.67245 1.6226l-2.9155 2.9155c-1.0566-1.2439-1.7408-2.8141-1.88-4.5381zm.67245-2.9331c-.33729.47368-.57221 1.0253-.67242 1.6227h-4.1231c.13932-1.7241.82342-3.2943 1.88-4.5382z"/>
</svg>
