<svg fill="currentColor" width="160" height="36" version="1.1" viewBox="0 0 160 36" xmlns="http://www.w3.org/2000/svg">
<g fill="#fff">
<path d="m16.777 0c-3.9382.31817-7.5249 1.8809-10.366 4.2944l6.6597 6.6597c1.082-.77048 2.3421-1.3071 3.7066-1.536zm6.6998 10.954c-1.0819-.77048-2.3421-1.3071-3.7065-1.536v-9.4181c3.9382.31817 7.5248 1.8809 10.366 4.2944zm3.6527 5.8232c-.22896-1.3645-.76556-2.6246-1.536-3.7066l6.6597-6.6597c2.4135 2.8414 3.9763 6.428 4.2944 10.366zm-1.536 6.6998c.77049-1.0819 1.3071-2.3421 1.536-3.7065h9.4181c-.31811 3.9381-1.8809 7.5248-4.2944 10.366zm-5.8231 3.6527c1.3644-.22896 2.6245-.76556 3.7065-1.536l6.6597 6.6597c-2.8414 2.4135-6.428 3.9763-10.366 4.2944zm-6.6999-1.536c1.082.77049 2.3421 1.3071 3.7066 1.536v9.4181c-3.9382-.31811-7.5249-1.8809-10.366-4.2944zm-3.6527-5.8231c.22896 1.3644.76557 2.6245 1.536 3.7065l-6.6597 6.6597c-2.4135-2.8414-3.9763-6.4281-4.2944-10.366zm1.536-6.6999c-.77048 1.082-1.3071 2.3421-1.536 3.7066h-9.4181c.31817-3.9382 1.8809-7.5249 4.2944-10.366z" stroke-width=".92774" clipRule="evenodd" fillRule="evenodd"/>
<path d="m41.111 4.7903v4.9368c.01608 1.801.01608 1.801.04824 2.2352.08041 1.4794.25729 2.1066.77187 2.6372.80403.85227 2.1226 1.0774 6.191 1.0774 2.4282 0 3.5699-.06432 4.5347-.25729 1.2221-.25729 2.0422-1.1096 2.2191-2.3317.09648-.75579.11256-.93268.16081-3.3609v-4.9368h-3.2644v4.9368c0 .24121-.01608.78795-.03216 1.19-.06432.93268-.12865 1.2221-.38594 1.4955-.35377.38594-1.0452.48242-3.2805.48242-2.782 0-3.4091-.17689-3.586-1.0292-.08041-.43418-.08041-.45026-.11256-2.1387v-4.9368z"/>
<path d="m57.539 4.7903v10.726h11.047v-2.7337h-7.6222v-7.9921z"/>
<path d="m67.76 4.7903v2.7337h4.776v7.9921h3.4252v-7.9921h4.776v-2.7337z"/>
<path d="m82.532 15.516h3.2644v-2.7176h4.6151c1.3508 0 1.592.03216 1.8171.28945.25729.27337.32161.65931.32161 1.8654v.56282h3.2161v-.997c.06429-2.4764-.22512-2.9588-1.8814-3.1518.67539-.09648.98092-.22513 1.3025-.48242.53066-.45026.69148-1.0613.69148-2.6051 0-1.8493-.24121-2.5729-1.0613-3.0714-.69147-.4181-.69147-.4181-4.39-.4181h-7.8956zm3.2644-5.4031v-2.6372h4.5991c1.5116.01608 1.5437.01608 1.785.12865.30553.14473.43418.46634.43418 1.1578s-.09648 1.0131-.38594 1.19c-.22513.12865-.22513.12865-1.8332.16081z"/>
<path d="m109.67 15.516h3.7146l-5.6121-10.726h-5.0815l-5.6765 10.726h3.7307l.9166-1.8171h7.0916zm-2.0583-4.1649h-4.792l2.0744-4.0684h.64323z"/>
<path d="m114.91 4.7903v10.726h3.3287l-.0804-7.9921h.35377l5.6443 7.9921h5.6765v-10.726h-3.3287l.0804 7.9921h-.33769l-5.6122-7.9921z"/>
<path d="m132.36 4.7903v10.726h11.932v-2.5729h-8.7157v-1.7045h8.2172v-2.3639h-8.2172v-1.5598h8.6514v-2.5247z"/>
<path d="m145.61 4.7903v2.7337h4.776v7.9921h3.4252v-7.9921h4.776v-2.7337z"/>
</g>
<g fill="#3dc1f2" stroke-width=".92773">
<path d="m41.175 20.871v10.726h11.932v-2.5729h-8.7157v-1.7045h8.2172v-2.3639h-8.2172v-1.5598h8.6514v-2.5247z"/>
<path d="m54.725 20.871 5.0654 5.3066-5.4835 5.4192h4.6955l3.4895-3.8594 3.5217 3.8594h4.583l-5.4031-5.4192 5.1458-5.3066h-4.5187l-3.3287 3.7629-3.2965-3.7629z"/>
<path d="m72.295 31.597h3.2644v-2.6211h4.1166c2.3799 0 3.1196-.06432 3.8433-.33769 1.2382-.48242 1.6402-1.4151 1.6402-3.7468 0-2.798-.59498-3.6503-2.7176-3.9398-.54674-.06432-.86836-.08041-2.798-.08041h-7.3489zm3.2644-5.3066v-2.7337h4.0845c1.4633.01608 1.4955.01608 1.7206.11256.40202.16081.53066.46634.53066 1.2221s-.11256 1.0613-.43418 1.2382c-.27337.14472-.33769.14472-1.8171.16081z"/>
<path d="m87.276 20.871v10.726h11.047v-2.7337h-7.6222v-7.9921z"/>
<path d="m107.45 20.71c-4.4543 0-5.4835.12864-6.3036.73971-.80404.62714-1.0613 1.7367-1.0613 4.7116 0 3.1357.24121 4.2131 1.0613 4.8564.82012.61106 1.8654.73971 6.3358.73971 4.4061 0 5.4514-.12865 6.2715-.73971.8201-.64323 1.0613-1.7045 1.0613-4.792 0-3.0714-.24122-4.1488-1.0613-4.776-.82011-.61106-1.8493-.73971-6.3036-.73971zm0 2.782c3.0071 0 3.393.04824 3.7307.51458.27337.36986.36985.997.36985 2.5247 0 1.2865-.11256 1.7689-.48241 2.0583-.4181.32161-.997.38594-3.586.38594-2.6533 0-3.2322-.06432-3.6503-.38594-.38594-.30553-.48242-.73971-.48242-2.0744 0-1.4151.0643-2.0101.28945-2.396.32162-.5789.65931-.62714 3.8111-.62714z"/>
<path d="m117.14 31.597h3.2644v-2.7176h4.6152c1.3508 0 1.592.03216 1.8171.28945.25729.27337.32162.65931.32162 1.8654v.56282h3.2161v-.997c.0643-2.4764-.22514-2.9588-1.8814-3.1518.67539-.09648.98092-.22513 1.3025-.48242.53067-.45026.69147-1.0613.69147-2.6051 0-1.8493-.24121-2.5729-1.0613-3.0714-.69146-.4181-.69146-.4181-4.39-.4181h-7.8956zm3.2644-5.4031v-2.6372h4.5991c1.5116.01608 1.5437.01608 1.785.12864.30553.14473.43418.46634.43418 1.1578s-.0965 1.0131-.38594 1.19c-.22512.12864-.22512.12864-1.8332.16081z"/>
<path d="m132.65 20.871v10.726h11.932v-2.5729h-8.7157v-1.7045h8.2172v-2.3639h-8.2172v-1.5598h8.6514v-2.5247z"/>
<path d="m146.65 31.597h3.2644v-2.7176h4.6152c1.3508 0 1.592.03216 1.8171.28945.25729.27337.32162.65931.32162 1.8654v.56282h3.2161v-.997c.0643-2.4764-.22513-2.9588-1.8814-3.1518.67539-.09648.98092-.22513 1.3025-.48242.53067-.45026.69147-1.0613.69147-2.6051 0-1.8493-.24121-2.5729-1.0613-3.0714-.69147-.4181-.69147-.4181-4.39-.4181h-7.8956zm3.2644-5.4031v-2.6372h4.5991c1.5116.01608 1.5437.01608 1.785.12864.30553.14473.43418.46634.43418 1.1578s-.0965 1.0131-.38594 1.19c-.22512.12864-.22512.12864-1.8332.16081z"/>
</g>
</svg>
