<svg width="25" height="24" viewBox="0 0 25 24" fill="none" xmlns="http://www.w3.org/2000/svg">
<path d="M10.8214 13.5538L14.0586 11.6757L10.8214 9.78837V13.5538Z" />
<path d="M12.44 0C10.1317 0 7.87522 0.684499 5.95591 1.96694C4.03661 3.24937 2.54069 5.07215 1.65734 7.20477C0.773978 9.33738 0.542851 11.6841 0.993183 13.948C1.44352 16.212 2.55508 18.2916 4.18731 19.9238C5.81955 21.5561 7.89914 22.6676 10.1631 23.118C12.4271 23.5683 14.7738 23.3372 16.9064 22.4538C19.039 21.5704 20.8618 20.0745 22.1442 18.1552C23.4266 16.2359 24.1111 13.9794 24.1111 11.6711C24.1111 8.57574 22.8815 5.60715 20.6928 3.41839C18.504 1.22963 15.5354 0 12.44 0ZM18.5827 13.7366C18.5829 14.0418 18.523 14.3441 18.4063 14.6262C18.2896 14.9083 18.1185 15.1646 17.9027 15.3805C17.687 15.5964 17.4308 15.7677 17.1488 15.8846C16.8668 16.0014 16.5645 16.0616 16.2593 16.0616H8.62082C8.31557 16.0616 8.01331 16.0014 7.73131 15.8846C7.44931 15.7677 7.19311 15.5964 6.97733 15.3805C6.76156 15.1646 6.59044 14.9083 6.47377 14.6262C6.35709 14.3441 6.29714 14.0418 6.29735 13.7366V9.60563C6.29714 9.30038 6.35709 8.99808 6.47377 8.716C6.59044 8.43393 6.76156 8.17761 6.97733 7.96169C7.19311 7.74578 7.44931 7.57449 7.73131 7.45763C8.01331 7.34077 8.31557 7.28062 8.62082 7.28062H16.2593C16.5645 7.28062 16.8668 7.34077 17.1488 7.45763C17.4308 7.57449 17.687 7.74578 17.9027 7.96169C18.1185 8.17761 18.2896 8.43393 18.4063 8.716C18.523 8.99808 18.5829 9.30038 18.5827 9.60563V13.7366Z" />
</svg>
