<svg width="32" height="32" viewBox="0 0 32 32" fill="none" xmlns="http://www.w3.org/2000/svg">
<path fill-rule="evenodd" clip-rule="evenodd" d="M14.6443 0C11.3342 0.271709 8.1895 1.56525 5.64334 3.70248L10.3463 8.4159C11.5959 7.39518 13.0765 6.72985 14.6443 6.48451V0ZM17.3518 0.00662542V6.48467C18.9201 6.72979 20.4011 7.39513 21.6511 8.41606L26.3051 3.75177C23.7772 1.60821 20.6501 0.300122 17.3518 0.00662542ZM3.7317 5.62367C1.58593 8.17043 0.282014 11.322 0 14.6433H6.89842C7.10691 13.12 7.66161 11.6712 8.51596 10.4186L3.7317 5.62367ZM28.2232 5.66637L23.4815 10.4186C24.3358 11.6712 24.8905 13.12 25.099 14.6433H31.9961C31.6938 11.3323 30.3758 8.19631 28.2232 5.66637ZM0 17.3568C0.302335 20.6679 1.62037 23.8039 3.77298 26.3338L8.51596 21.5803C7.66179 20.3281 7.1071 18.8797 6.89842 17.3568H0ZM25.0977 17.3568C24.8894 18.8796 24.3352 20.3279 23.4815 21.5803L28.267 26.3765C30.4132 23.8299 31.7176 20.6783 32 17.3568H25.0977ZM10.3463 23.5841L5.69107 28.2497C8.21905 30.3928 11.3462 31.7004 14.6443 31.9935V25.5155C13.0765 25.2701 11.5959 24.6048 10.3463 23.5841ZM21.6511 23.5841C20.4011 24.605 18.9201 25.2704 17.3518 25.5155V32C20.6627 31.7292 23.8083 30.4361 26.3554 28.2988L21.6511 23.5841Z" fill="#1E5468"/>
</svg>
