<svg width="31" height="31" viewBox="0 0 31 31" fill="none" xmlns="http://www.w3.org/2000/svg">
<path d="M24.2188 31C26.0173 31 27.7421 30.2855 29.0138 29.0138C30.2855 27.7421 31 26.0173 31 24.2188C31 22.4202 30.2855 20.6954 29.0138 19.4237C27.7421 18.152 26.0173 17.4375 24.2188 17.4375C22.4203 17.4375 20.6954 18.152 19.4237 19.4237C18.152 20.6954 17.4375 22.4202 17.4375 24.2188C17.4375 26.0173 18.152 27.7421 19.4237 29.0138C20.6954 30.2855 22.4203 31 24.2188 31ZM25.1875 21.3125V23.25H27.125C27.3819 23.25 27.6283 23.3521 27.81 23.5337C27.9917 23.7154 28.0938 23.9618 28.0938 24.2188C28.0938 24.4757 27.9917 24.7221 27.81 24.9038C27.6283 25.0854 27.3819 25.1875 27.125 25.1875H25.1875V27.125C25.1875 27.3819 25.0854 27.6283 24.9038 27.81C24.7221 27.9917 24.4757 28.0938 24.2188 28.0938C23.9618 28.0938 23.7154 27.9917 23.5337 27.81C23.3521 27.6283 23.25 27.3819 23.25 27.125V25.1875H21.3125C21.0556 25.1875 20.8092 25.0854 20.6275 24.9038C20.4458 24.7221 20.3438 24.4757 20.3438 24.2188C20.3438 23.9618 20.4458 23.7154 20.6275 23.5337C20.8092 23.3521 21.0556 23.25 21.3125 23.25H23.25V21.3125C23.25 21.0556 23.3521 20.8092 23.5337 20.6275C23.7154 20.4458 23.9618 20.3438 24.2188 20.3438C24.4757 20.3438 24.7221 20.4458 24.9038 20.6275C25.0854 20.8092 25.1875 21.0556 25.1875 21.3125ZM21.3125 9.6875C21.3125 11.2291 20.7001 12.7075 19.6101 13.7976C18.52 14.8876 17.0416 15.5 15.5 15.5C13.9584 15.5 12.48 14.8876 11.3899 13.7976C10.2999 12.7075 9.6875 11.2291 9.6875 9.6875C9.6875 8.14593 10.2999 6.6675 11.3899 5.57744C12.48 4.48739 13.9584 3.875 15.5 3.875C17.0416 3.875 18.52 4.48739 19.6101 5.57744C20.7001 6.6675 21.3125 8.14593 21.3125 9.6875ZM15.5 13.5625C16.5277 13.5625 17.5133 13.1542 18.24 12.4275C18.9667 11.7008 19.375 10.7152 19.375 9.6875C19.375 8.65979 18.9667 7.67416 18.24 6.94746C17.5133 6.22076 16.5277 5.8125 15.5 5.8125C14.4723 5.8125 13.4867 6.22076 12.76 6.94746C12.0333 7.67416 11.625 8.65979 11.625 9.6875C11.625 10.7152 12.0333 11.7008 12.76 12.4275C13.4867 13.1542 14.4723 13.5625 15.5 13.5625Z" fill="black"/>
<path d="M15.996 27.125C15.7737 26.4958 15.6248 25.8431 15.5523 25.1798H5.8125C5.81444 24.7031 6.11088 23.2694 7.4245 21.9557C8.68775 20.6925 11.0651 19.375 15.5 19.375C16.0037 19.375 16.4823 19.3924 16.9337 19.4234C17.3716 18.7627 17.8947 18.1641 18.4915 17.6448C17.5867 17.5111 16.5927 17.4375 15.5 17.4375C5.8125 17.4375 3.875 23.25 3.875 25.1875C3.875 27.125 5.8125 27.125 5.8125 27.125H15.996Z" fill="black"/>
</svg>
