<svg width="31" height="31" viewBox="0 0 31 31" fill="none" xmlns="http://www.w3.org/2000/svg">
<g clip-path="url(#clip0_1348_411)">
<path d="M26.8906 20.1771C25.9588 19.5622 24.8434 19.2879 23.7327 19.4005C22.6221 19.513 21.5844 20.0056 20.795 20.795C20.0056 21.5844 19.513 22.6221 19.4005 23.7327C19.2879 24.8434 19.5622 25.9588 20.1771 26.8906L26.8906 20.1771ZM28.2604 21.5469L21.5469 28.2604C22.4787 28.8753 23.5941 29.1496 24.7048 29.037C25.8154 28.9245 26.8531 28.4319 27.6425 27.6425C28.4319 26.8531 28.9245 25.8154 29.037 24.7048C29.1496 23.5941 28.8753 22.4787 28.2604 21.5469ZM19.4254 19.4234C20.0528 18.7835 20.8009 18.2742 21.6263 17.9251C22.4518 17.576 23.3382 17.394 24.2344 17.3896C25.1307 17.3852 26.0189 17.5586 26.8477 17.8995C27.6765 18.2405 28.4296 18.7424 29.0632 19.3762C29.6969 20.01 30.1986 20.7631 30.5395 21.592C30.8803 22.4209 31.0534 23.3092 31.0488 24.2054C31.0443 25.1016 30.8621 25.988 30.5128 26.8134C30.1636 27.6388 29.6542 28.3868 29.0141 29.0141C27.7423 30.2859 26.0173 31.0003 24.2188 31.0003C22.4202 31.0003 20.6952 30.2859 19.4234 29.0141C18.1516 27.7423 17.4372 26.0173 17.4372 24.2188C17.4372 22.4202 18.1516 20.6952 19.4234 19.4234H19.4254ZM21.3125 9.6875C21.3125 11.2291 20.7001 12.7075 19.6101 13.7976C18.52 14.8876 17.0416 15.5 15.5 15.5C13.9584 15.5 12.48 14.8876 11.3899 13.7976C10.2999 12.7075 9.6875 11.2291 9.6875 9.6875C9.6875 8.14593 10.2999 6.6675 11.3899 5.57744C12.48 4.48739 13.9584 3.875 15.5 3.875C17.0416 3.875 18.52 4.48739 19.6101 5.57744C20.7001 6.6675 21.3125 8.14593 21.3125 9.6875ZM3.875 25.1875C3.875 27.125 5.8125 27.125 5.8125 27.125H15.996C15.6666 26.1915 15.4989 25.2087 15.5 24.2188C15.4987 22.9727 15.7652 21.7408 16.2813 20.6067C16.7974 19.4725 17.5511 18.4624 18.4915 17.6448C17.5867 17.5111 16.5927 17.4375 15.5 17.4375C5.8125 17.4375 3.875 23.25 3.875 25.1875Z" fill="black"/>
</g>
<defs>
<clipPath id="clip0_1348_411">
<rect width="31" height="31" fill="white"/>
</clipPath>
</defs>
</svg>
