<svg width="31" height="31" viewBox="0 0 31 31" fill="none" xmlns="http://www.w3.org/2000/svg">
<path d="M31 15.5C31 15.5 25.1875 4.84375 15.5 4.84375C5.8125 4.84375 0 15.5 0 15.5C0 15.5 5.8125 26.1562 15.5 26.1562C25.1875 26.1562 31 15.5 31 15.5ZM2.27269 15.5C3.2095 14.0762 4.28699 12.7501 5.48894 11.5417C7.9825 9.04425 11.3925 6.78125 15.5 6.78125C19.6075 6.78125 23.0156 9.04425 25.513 11.5417C26.7149 12.7501 27.7924 14.0762 28.7292 15.5C28.6169 15.6686 28.4929 15.8546 28.3514 16.058C27.7024 16.988 26.7433 18.228 25.513 19.4583C23.0156 21.9558 19.6056 24.2188 15.5 24.2188C11.3925 24.2188 7.98444 21.9558 5.487 19.4583C4.28506 18.2499 3.20757 16.9238 2.27075 15.5H2.27269Z" fill="black"/>
<path d="M15.5 10.6562C14.2154 10.6562 12.9833 11.1666 12.075 12.075C11.1666 12.9833 10.6562 14.2154 10.6562 15.5C10.6562 16.7846 11.1666 18.0167 12.075 18.925C12.9833 19.8334 14.2154 20.3438 15.5 20.3438C16.7846 20.3438 18.0167 19.8334 18.925 18.925C19.8334 18.0167 20.3438 16.7846 20.3438 15.5C20.3438 14.2154 19.8334 12.9833 18.925 12.075C18.0167 11.1666 16.7846 10.6562 15.5 10.6562ZM8.71875 15.5C8.71875 13.7015 9.4332 11.9767 10.7049 10.7049C11.9767 9.4332 13.7015 8.71875 15.5 8.71875C17.2985 8.71875 19.0233 9.4332 20.2951 10.7049C21.5668 11.9767 22.2812 13.7015 22.2812 15.5C22.2812 17.2985 21.5668 19.0233 20.2951 20.2951C19.0233 21.5668 17.2985 22.2812 15.5 22.2812C13.7015 22.2812 11.9767 21.5668 10.7049 20.2951C9.4332 19.0233 8.71875 17.2985 8.71875 15.5Z" fill="black"/>
</svg>
