<svg width="24" height="24" viewBox="0 0 24 24" fill="none" xmlns="http://www.w3.org/2000/svg">
<path d="M13.8954 9H4.10456C3.49453 9 3 9.49453 3 10.1046V19.8954C3 20.5055 3.49453 21 4.10456 21H13.8954C14.5055 21 15 20.5055 15 19.8954V10.1046C15 9.49453 14.5055 9 13.8954 9Z" stroke="#729FB1" stroke-linecap="round" stroke-linejoin="round"/>
<path d="M15 15H19V15C20.1032 14.9968 20.9968 14.1032 21 13V5V4.99999C20.9968 3.89676 20.1032 3.00322 19 3H11V3C9.89677 3.00323 9.00323 3.89677 9 5V9" stroke="#729FB1" stroke-linecap="round" stroke-linejoin="round"/>
<path d="M12.335 5.99988V5.99988C12.335 6.18407 12.1857 6.33338 12.0015 6.33338C11.8173 6.33338 11.668 6.18407 11.668 5.99988C11.668 5.81569 11.8173 5.66638 12.0015 5.66638" stroke="#729FB1" stroke-linecap="round" stroke-linejoin="round"/>
<path d="M12 5.66638V5.66638C12.1842 5.66638 12.3335 5.81569 12.3335 5.99988V5.99988" stroke="#729FB1" stroke-linecap="round" stroke-linejoin="round"/>
<path d="M18.335 5.99988V5.99988C18.335 6.18407 18.1857 6.33338 18.0015 6.33338C17.8173 6.33338 17.668 6.18407 17.668 5.99988C17.668 5.81569 17.8173 5.66638 18.0015 5.66638" stroke="#729FB1" stroke-linecap="round" stroke-linejoin="round"/>
<path d="M18 5.66638V5.66638C18.1842 5.66638 18.3335 5.81569 18.3335 5.99988V5.99988" stroke="#729FB1" stroke-linecap="round" stroke-linejoin="round"/>
<path d="M18.335 11.9998C18.335 12.1839 18.1857 12.3333 18.0015 12.3333C17.8173 12.3333 17.668 12.1839 17.668 11.9998C17.668 11.8156 17.8173 11.6663 18.0015 11.6663" stroke="#729FB1" stroke-linecap="round" stroke-linejoin="round"/>
<path d="M18 11.6663V11.6663C18.1842 11.6663 18.3335 11.8156 18.3335 11.9998V11.9998" stroke="#729FB1" stroke-linecap="round" stroke-linejoin="round"/>
<path d="M12.335 11.9998C12.335 12.1839 12.1857 12.3333 12.0015 12.3333C11.8173 12.3333 11.668 12.1839 11.668 11.9998C11.668 11.8156 11.8173 11.6663 12.0015 11.6663" stroke="#729FB1" stroke-linecap="round" stroke-linejoin="round"/>
<path d="M12 11.6663V11.6663C12.1842 11.6663 12.3335 11.8156 12.3335 11.9998V11.9998" stroke="#729FB1" stroke-linecap="round" stroke-linejoin="round"/>
<path d="M6.33497 11.9998C6.33497 12.1839 6.18566 12.3333 6.00147 12.3333C5.81728 12.3333 5.66797 12.1839 5.66797 11.9998C5.66797 11.8156 5.81728 11.6663 6.00147 11.6663" stroke="#729FB1" stroke-linecap="round" stroke-linejoin="round"/>
<path d="M6 11.6663V11.6663C6.18419 11.6663 6.3335 11.8156 6.3335 11.9998V11.9998" stroke="#729FB1" stroke-linecap="round" stroke-linejoin="round"/>
<path d="M9.33497 14.9998C9.33497 15.1839 9.18566 15.3333 9.00147 15.3333C8.81728 15.3333 8.66797 15.1839 8.66797 14.9998C8.66797 14.8156 8.81728 14.6663 9.00147 14.6663" stroke="#729FB1" stroke-linecap="round" stroke-linejoin="round"/>
<path d="M9 14.6663V14.6663C9.18419 14.6663 9.3335 14.8156 9.3335 14.9998V14.9998" stroke="#729FB1" stroke-linecap="round" stroke-linejoin="round"/>
<path d="M12.335 17.9998C12.335 18.1839 12.1857 18.3333 12.0015 18.3333C11.8173 18.3333 11.668 18.1839 11.668 17.9998C11.668 17.8156 11.8173 17.6663 12.0015 17.6663" stroke="#729FB1" stroke-linecap="round" stroke-linejoin="round"/>
<path d="M12 17.6663V17.6663C12.1842 17.6663 12.3335 17.8156 12.3335 17.9998" stroke="#729FB1" stroke-linecap="round" stroke-linejoin="round"/>
<path d="M6.33497 17.9998C6.33497 18.1839 6.18566 18.3333 6.00147 18.3333C5.81728 18.3333 5.66797 18.1839 5.66797 17.9998C5.66797 17.8156 5.81728 17.6663 6.00147 17.6663" stroke="#729FB1" stroke-linecap="round" stroke-linejoin="round"/>
<path d="M6 17.6663V17.6663C6.18419 17.6663 6.3335 17.8156 6.3335 17.9998" stroke="#729FB1" stroke-linecap="round" stroke-linejoin="round"/>
</svg>
