<svg width="28" height="28" viewBox="0 0 28 28" fill="none" xmlns="http://www.w3.org/2000/svg">
<path d="M14 13.6783V10.5" stroke="#E09A30" stroke-width="1.5" stroke-linecap="round" stroke-linejoin="round"/>
<path d="M23.1175 16.0958L23.1745 16.0815C23.5531 15.9868 23.8892 15.7683 24.1294 15.4607C24.3696 15.1531 24.5 14.774 24.5 14.3837V13.6159C24.5 13.2256 24.3696 12.8465 24.1294 12.5389C23.8892 12.2313 23.5531 12.0128 23.1745 11.9181L23.1173 11.9038C22.8244 11.8304 22.5528 11.6894 22.3242 11.4922C22.0956 11.2949 21.9164 11.0469 21.801 10.7679C21.6855 10.4889 21.637 10.1867 21.6593 9.88562C21.6816 9.58451 21.7742 9.29282 21.9296 9.03392L21.9536 8.99388C22.1569 8.65872 22.242 8.26507 22.1953 7.87585C22.1486 7.48662 21.9728 7.12428 21.696 6.84672L21.153 6.30373C20.877 6.02777 20.5168 5.85197 20.1294 5.80427C19.7421 5.75658 19.3499 5.83974 19.0152 6.04052L18.9647 6.07085C18.7058 6.22617 18.4141 6.31868 18.1131 6.34096C17.812 6.36323 17.5099 6.31465 17.231 6.19912C16.9521 6.08359 16.7041 5.90432 16.5069 5.67568C16.3098 5.44703 16.169 5.17538 16.0957 4.8825L16.0815 4.82548C15.9868 4.44687 15.7683 4.11077 15.4607 3.87061C15.1531 3.63044 14.774 3.49999 14.3837 3.5H13.6158C13.2256 3.5 12.8465 3.63045 12.5389 3.87062C12.2312 4.11079 12.0127 4.44689 11.9181 4.82551L11.9038 4.88268C11.8304 5.17556 11.6894 5.44718 11.4922 5.67578C11.2949 5.90438 11.0468 6.08359 10.7679 6.19906C10.4889 6.31453 10.1867 6.36304 9.88561 6.34072C9.5845 6.31839 9.2928 6.22584 9.0339 6.07048L8.99383 6.04646C8.65867 5.84313 8.26503 5.75802 7.87581 5.80471C7.48659 5.8514 7.12425 6.02721 6.84669 6.30404L6.30371 6.84701C6.02773 7.12293 5.85191 7.48318 5.8042 7.8705C5.75649 8.25782 5.83963 8.64997 6.04039 8.98462L6.07027 9.03443C6.22563 9.29334 6.31819 9.58503 6.34052 9.88614C6.36285 10.1873 6.31434 10.4894 6.19888 10.7684C6.08341 11.0474 5.9042 11.2955 5.6756 11.4927C5.44701 11.69 5.17539 11.8309 4.8825 11.9043L4.82552 11.9186C4.44692 12.0132 4.11082 12.2317 3.87065 12.5393C3.63048 12.8469 3.50001 13.226 3.5 13.6163V14.3843C3.49994 14.7745 3.63032 15.1535 3.87042 15.4611C4.11052 15.7686 4.44655 15.9871 4.82509 16.0818L4.88169 16.0959C5.17462 16.1691 5.44633 16.31 5.67503 16.5071C5.90374 16.7042 6.0831 16.9522 6.19873 17.2311C6.31435 17.51 6.36304 17.8121 6.34088 18.1133C6.31873 18.4144 6.22634 18.7061 6.07113 18.9651L6.04088 19.0155C5.84011 19.3501 5.75695 19.7423 5.80463 20.1296C5.85231 20.517 6.02809 20.8773 6.30404 21.1532L6.84707 21.6963C7.12293 21.9722 7.48312 22.1481 7.87038 22.1958C8.25764 22.2435 8.64974 22.1604 8.98434 21.9597L9.03437 21.9296C9.29328 21.7743 9.58497 21.6817 9.88608 21.6594C10.1872 21.637 10.4894 21.6855 10.7683 21.801C11.0473 21.9165 11.2954 22.0957 11.4927 22.3243C11.6899 22.5529 11.8309 22.8245 11.9043 23.1174L11.9186 23.1744C12.0132 23.553 12.2317 23.8891 12.5393 24.1293C12.8469 24.3695 13.226 24.5 13.6162 24.5H14.3842C14.7744 24.5 15.1534 24.3696 15.461 24.1295C15.7686 23.8894 15.9871 23.5534 16.0817 23.1748L16.0959 23.1182C16.1691 22.8253 16.3099 22.5536 16.507 22.3249C16.7041 22.0962 16.9521 21.9168 17.231 21.8012C17.5099 21.6856 17.8121 21.6369 18.1132 21.6591C18.4143 21.6812 18.7061 21.7736 18.9651 21.9289L19.0155 21.9591C19.3501 22.1599 19.7423 22.243 20.1296 22.1954C20.517 22.1477 20.8772 21.9719 21.1532 21.696L21.6963 21.1529C21.9722 20.877 22.148 20.5168 22.1958 20.1296C22.2435 19.7423 22.1604 19.3502 21.9596 19.0156L21.9296 18.9656C21.7743 18.7067 21.6817 18.415 21.6594 18.1139C21.6371 17.8128 21.6856 17.5106 21.8011 17.2316C21.9166 16.9526 22.0958 16.7046 22.3244 16.5073C22.553 16.3101 22.8246 16.1691 23.1175 16.0958V16.0958Z" stroke="#E09A30" stroke-width="1.5" stroke-linecap="round" stroke-linejoin="round"/>
<path d="M13.9987 17.1875C13.9781 17.1875 13.9578 17.1915 13.9388 17.1995C13.9198 17.2074 13.9026 17.219 13.8882 17.2337C13.8737 17.2483 13.8624 17.2657 13.8548 17.2848C13.8471 17.3039 13.8434 17.3244 13.8438 17.3449C13.844 17.3866 13.8607 17.4265 13.8902 17.456C13.9196 17.4854 13.9595 17.5021 14.0012 17.5023C14.0427 17.5016 14.0822 17.4846 14.1112 17.4548C14.1402 17.4251 14.1562 17.3852 14.1559 17.3437C14.1556 17.3022 14.1389 17.2625 14.1094 17.2332C14.08 17.204 14.0402 17.1876 13.9987 17.1875" stroke="#E09A30" stroke-width="1.5" stroke-linecap="round" stroke-linejoin="round"/>
</svg>
