<svg width="28" height="28" viewBox="0 0 28 28" fill="none" xmlns="http://www.w3.org/2000/svg">
<path d="M19.8333 8.16797V7.0013C19.8333 6.38246 19.5875 5.78897 19.1499 5.35139C18.7123 4.9138 18.1188 4.66797 17.5 4.66797H6.41667C5.64312 4.66797 4.90125 4.97526 4.35427 5.52224C3.80729 6.06922 3.5 6.81109 3.5 7.58464V21.5846C3.5 22.3582 3.80729 23.1 4.35427 23.647C4.90125 24.194 5.64312 24.5013 6.41667 24.5013H21.5833C22.3569 24.5013 23.0987 24.194 23.6457 23.647C24.1927 23.1 24.5 22.3582 24.5 21.5846V10.5013C24.5 9.88246 24.2542 9.28897 23.8166 8.85139C23.379 8.4138 22.7855 8.16797 22.1667 8.16797H3.5" stroke="#53E030" stroke-width="1.5" stroke-linecap="round" stroke-linejoin="round"/>
<path d="M19.8333 16.3359H17.5" stroke="#53E030" stroke-width="1.5" stroke-linecap="round" stroke-linejoin="round"/>
</svg>
