<svg width="28" height="28" viewBox="0 0 28 28" fill="none" xmlns="http://www.w3.org/2000/svg">
<path d="M18.6654 2.33203L16.332 4.66536L18.6654 6.9987" stroke="#E03030" stroke-width="1.5" stroke-linecap="round" stroke-linejoin="round"/>
<path d="M23.332 4.66406H16.332" stroke="#E03030" stroke-width="1.5" stroke-linecap="round" stroke-linejoin="round"/>
<path d="M24.4989 13.9987C24.4979 12.3785 24.1198 10.7808 23.3945 9.33203" stroke="#E03030" stroke-width="1.5" stroke-linecap="round" stroke-linejoin="round"/>
<path d="M11.6667 3.76953C9.3478 4.29759 7.27697 5.59739 5.7933 7.45607C4.30963 9.31475 3.50105 11.6221 3.5 14.0004" stroke="#E03030" stroke-width="1.5" stroke-linecap="round" stroke-linejoin="round"/>
<path d="M9.33203 25.6667L11.6654 23.3333L9.33203 21" stroke="#E03030" stroke-width="1.5" stroke-linecap="round" stroke-linejoin="round"/>
<path d="M4.66797 23.332H11.668" stroke="#E03030" stroke-width="1.5" stroke-linecap="round" stroke-linejoin="round"/>
<path d="M3.5 14C3.501 15.6202 3.87909 17.2179 4.60435 18.6667" stroke="#E03030" stroke-width="1.5" stroke-linecap="round" stroke-linejoin="round"/>
<path d="M16.332 24.2308C18.6509 23.7028 20.7217 22.403 22.2054 20.5443C23.6891 18.6856 24.4976 16.3782 24.4987 14" stroke="#E03030" stroke-width="1.5" stroke-linecap="round" stroke-linejoin="round"/>
<path d="M15.2356 9.84444L18.1526 12.7607C18.3152 12.9231 18.4441 13.116 18.5321 13.3284C18.6201 13.5407 18.6654 13.7682 18.6654 13.9981C18.6654 14.2279 18.6202 14.4554 18.5323 14.6678C18.4443 14.8801 18.3155 15.0731 18.153 15.2356L15.2368 18.1526C15.0743 18.3152 14.8814 18.4441 14.6691 18.5321C14.4567 18.6201 14.2292 18.6654 13.9994 18.6654C13.7695 18.6654 13.542 18.6202 13.3296 18.5323C13.1173 18.4443 12.9244 18.3155 12.7618 18.153L9.84479 15.2368C9.68226 15.0743 9.55332 14.8814 9.46534 14.6691C9.37736 14.4567 9.33206 14.2292 9.33203 13.9994C9.332 13.7695 9.37723 13.542 9.46515 13.3296C9.55307 13.1173 9.68196 12.9244 9.84444 12.7618L12.7607 9.84479C12.9231 9.68226 13.116 9.55332 13.3284 9.46534C13.5407 9.37736 13.7682 9.33206 13.9981 9.33203C14.2279 9.332 14.4554 9.37723 14.6678 9.46515C14.8801 9.55307 15.0731 9.68196 15.2356 9.84444V9.84444Z" stroke="#E03030" stroke-width="1.5" stroke-linecap="round" stroke-linejoin="round"/>
</svg>
