<svg width="28" height="28" viewBox="0 0 28 28" fill="none" xmlns="http://www.w3.org/2000/svg">
<path d="M6.03125 7.2112V7.19953C6.56792 6.56953 7.17458 5.99786 7.85125 5.51953" stroke="#E03030" stroke-width="1.5" stroke-linecap="round" stroke-linejoin="round"/>
<path d="M19.8431 22.75H19.8314C17.2064 24.4883 13.9514 24.9783 10.9414 24.0567" stroke="#E03030" stroke-width="1.5" stroke-linecap="round" stroke-linejoin="round"/>
<path d="M4.11833 10.5234V10.5117C3.71 11.6317 3.5 12.8101 3.5 14.0117" stroke="#E03030" stroke-width="1.5" stroke-linecap="round" stroke-linejoin="round"/>
<path d="M10.9531 3.97857V3.9669C16.4831 2.26357 22.3398 5.3669 24.0431 10.8969C24.9648 13.9186 24.4748 17.2086 22.7015 19.8336" stroke="#E03030" stroke-width="1.5" stroke-linecap="round" stroke-linejoin="round"/>
<path d="M7.85047 22.5167L7.8388 22.5051C6.11214 21.2451 4.81714 19.5067 4.10547 17.5117" stroke="#E03030" stroke-width="1.5" stroke-linecap="round" stroke-linejoin="round"/>
<path d="M13.4282 19.015L9.9282 17.0083C9.55486 16.7983 9.3332 16.4133 9.3332 15.9933V12.0033H9.33203C9.33203 11.5833 9.5537 11.1867 9.91537 10.9883L13.4154 8.98167V8.97C13.7654 8.76 14.2087 8.76 14.5704 8.97L18.0704 10.965L18.0587 10.9638C18.4204 11.1622 18.642 11.5472 18.642 11.9672V15.9455V15.9338C18.642 16.3422 18.4087 16.7388 18.047 16.9372L14.547 18.9322V18.9205C14.1854 19.1188 13.742 19.1188 13.3804 18.9205L13.4282 19.015Z" stroke="#E03030" stroke-width="1.5" stroke-linecap="round" stroke-linejoin="round"/>
<path d="M9.53125 11.457L14.0113 14.0237" stroke="#E03030" stroke-width="1.5" stroke-linecap="round" stroke-linejoin="round"/>
<path d="M18.5151 11.4453L14.0117 14.0236" stroke="#E03030" stroke-width="1.5" stroke-linecap="round" stroke-linejoin="round"/>
<path d="M14.0117 14.0234V19.1801" stroke="#E03030" stroke-width="1.5" stroke-linecap="round" stroke-linejoin="round"/>
</svg>
