<svg width="26" height="26" viewBox="0 0 26 26" fill="none" xmlns="http://www.w3.org/2000/svg">
<path d="M13 22.75C18.3848 22.75 22.75 18.3848 22.75 13C22.75 7.61522 18.3848 3.25 13 3.25C7.61522 3.25 3.25 7.61522 3.25 13C3.25 18.3848 7.61522 22.75 13 22.75Z" stroke="white" stroke-width="1.5" stroke-linecap="round" stroke-linejoin="round"/>
<path d="M10.4922 10.4919V10.4919C10.7489 9.38563 11.7564 8.61862 12.891 8.66571V8.66571C14.1609 8.59538 15.2495 9.56303 15.3285 10.8324C15.3285 12.4616 12.9994 12.999 12.9994 14.0824" stroke="white" stroke-width="1.5" stroke-linecap="round" stroke-linejoin="round"/>
<path d="M13.1341 17.0632C13.1341 17.1379 13.0735 17.1986 12.9987 17.1986C12.9239 17.1986 12.8633 17.1379 12.8633 17.0632C12.8633 16.9884 12.9239 16.9277 12.9987 16.9277" stroke="white" stroke-width="1.5" stroke-linecap="round" stroke-linejoin="round"/>
<path d="M13 16.9277V16.9277C13.0748 16.9277 13.1354 16.9884 13.1354 17.0632" stroke="white" stroke-width="1.5" stroke-linecap="round" stroke-linejoin="round"/>
</svg>
