<svg width="26" height="26" viewBox="0 0 26 26" fill="none" xmlns="http://www.w3.org/2000/svg">
<g clip-path="url(#clip0_2253_15766)">
<path d="M23.0013 24.3333L25.168 22.1656L23.0013 20" stroke="#3DC1F2" stroke-width="1.5" stroke-linecap="round" stroke-linejoin="round"/>
<path d="M25 22L20 22" stroke="#3DC1F2" stroke-width="1.5" stroke-linecap="round" stroke-linejoin="round"/>
<path d="M20.7273 13.8184L13.3636 18.182L6 13.8184" stroke="#3DC1F2" stroke-width="1.5" stroke-linecap="round" stroke-linejoin="round"/>
<path d="M6.14251 13.0352L12.5061 2.42916C12.8945 1.78182 13.8327 1.78182 14.2211 2.42915L20.5848 13.0352C20.678 13.1906 20.7273 13.3685 20.7273 13.5497V14.3173C20.7273 14.5248 20.6627 14.7273 20.5425 14.8965L14.1788 23.8527C13.7802 24.4138 12.9471 24.4138 12.5485 23.8527L6.18482 14.8965C6.06459 14.7273 6 14.5248 6 14.3173V13.5497C6 13.3685 6.04926 13.1906 6.14251 13.0352Z" stroke="#3DC1F2" stroke-width="1.5" stroke-linecap="round" stroke-linejoin="round"/>
</g>
<defs>
<clipPath id="clip0_2253_15766">
<rect width="26" height="26" fill="white"/>
</clipPath>
</defs>
</svg>
