<svg xmlns="http://www.w3.org/2000/svg" height="24" viewBox="0 96 960 960" width="24"><path d="M876 540q-77-77-178.5-120.5T480 376q-21 0-41.077 1.5Q418.846 379 400 382l-76.614-76.614q35.154-9.307 73.922-13.961 38.769-4.654 82.692-4.654 135.461 0 252.691 50.5 117.231 50.5 205.769 139.038L876 540ZM716 698l-23.038-23.038-23.038-23.038-113.613-113.613q57.537 8 112.651 35.422 55.114 27.423 99.498 71.807L716 698Zm77.077 277.383L439.386 619.692q-53.923 6.769-101.924 29.923-48 23.154-83.462 60.385l-62.46-63.691q35.462-35.461 79.962-61.385 44.501-25.923 94.194-38.923L247.232 427.538q-43.308 19.461-85.539 48.231Q119.462 504.538 84 540l-61.69-63.691q35.846-35.846 76.5-65 40.654-29.154 81.962-50.231l-87.846-87.847 42.153-42.152L837.23 933.23l-44.153 42.153ZM480 936 360.54 815.925q23.154-23.154 53.576-36.154 30.423-13 65.884-13t65.884 13q30.422 13 53.576 36.154L480 936Z"/></svg>