<svg xmlns="http://www.w3.org/2000/svg" height="24" viewBox="0 96 960 960" width="24"><path d="m254 710-62.46-63.691q55.538-55.538 129.269-87.538 73.73-32 159.191-32t159.191 32.308q73.731 32.307 129.269 88.461L706 710q-44-44-102-69t-124-25q-66 0-124 25t-102 69ZM84 540l-62.46-62.46q87.769-89 204.999-139.884Q343.77 286.771 480 286.771q136.23 0 253.461 50.885Q850.691 388.54 938.46 477.54L876 540q-77-77-178.5-120.5T480 376q-116 0-217.5 43.5T84 540Zm396 396 119.46-120.075q-23.154-23.154-53.576-36.154-30.423-13-65.884-13t-65.884 13q-30.422 13-53.576 36.154L480 936Z"/></svg>